<svg width="20" height="20" viewBox="0 0 20 20" fill="none" xmlns="http://www.w3.org/2000/svg">
<path d="M0.666016 12.6667L0.312462 12.3132L0.166016 12.4596V12.6667H0.666016ZM12.666 0.666748L13.0196 0.313195C12.8243 0.117932 12.5077 0.117932 12.3125 0.313195L12.666 0.666748ZM19.3327 7.33341L19.6862 7.68697C19.78 7.5932 19.8327 7.46602 19.8327 7.33341C19.8327 7.20081 19.78 7.07363 19.6862 6.97986L19.3327 7.33341ZM7.33268 19.3334V19.8334H7.53979L7.68624 19.687L7.33268 19.3334ZM0.666016 19.3334H0.166016C0.166016 19.6096 0.389873 19.8334 0.666016 19.8334L0.666016 19.3334ZM1.01957 13.0203L13.0196 1.0203L12.3125 0.313195L0.312462 12.3132L1.01957 13.0203ZM12.3125 1.0203L18.9791 7.68697L19.6862 6.97986L13.0196 0.313195L12.3125 1.0203ZM18.9791 6.97986L6.97913 18.9799L7.68624 19.687L19.6862 7.68697L18.9791 6.97986ZM7.33268 18.8334H0.666016V19.8334H7.33268V18.8334ZM1.16602 19.3334V12.6667H0.166016V19.3334H1.16602ZM8.31246 5.0203L14.9791 11.687L15.6862 10.9799L9.01957 4.31319L8.31246 5.0203ZM10.666 19.8334H19.9993V18.8334H10.666V19.8334Z" fill="#222831"/>
</svg>
