<svg width="20" height="20" viewBox="0 0 20 20" fill="none" xmlns="http://www.w3.org/2000/svg">
<path d="M2.83333 16.6667V17.1667H3.83333V16.6667H2.83333ZM9.5 16.6667V17.1667H10.5V16.6667H9.5ZM3.83333 16.6667V15.9998H2.83333V16.6667H3.83333ZM9.5 15.9995V16.6667H10.5V15.9995H9.5ZM6.66667 13.1667C8.23156 13.1667 9.5 14.4348 9.5 15.9995H10.5C10.5 13.8824 8.78367 12.1667 6.66667 12.1667V13.1667ZM3.83333 15.9998C3.83333 14.4351 5.10183 13.1667 6.66667 13.1667V12.1667C4.54961 12.1667 2.83333 13.8827 2.83333 15.9998H3.83333ZM6.66667 5.5C5.28595 5.5 4.16667 6.61929 4.16667 8H5.16667C5.16667 7.17157 5.83824 6.5 6.66667 6.5V5.5ZM9.16667 8C9.16667 6.61929 8.04738 5.5 6.66667 5.5V6.5C7.49509 6.5 8.16667 7.17157 8.16667 8H9.16667ZM6.66667 10.5C8.04738 10.5 9.16667 9.38071 9.16667 8H8.16667C8.16667 8.82843 7.49509 9.5 6.66667 9.5V10.5ZM6.66667 9.5C5.83824 9.5 5.16667 8.82843 5.16667 8H4.16667C4.16667 9.38071 5.28595 10.5 6.66667 10.5V9.5ZM2 3.83333H18V2.83333H2V3.83333ZM18.8333 4.66667V15.3333H19.8333V4.66667H18.8333ZM18 16.1667H2V17.1667H18V16.1667ZM1.16667 15.3333V4.66667H0.166667V15.3333H1.16667ZM2 16.1667C1.53976 16.1667 1.16667 15.7936 1.16667 15.3333H0.166667C0.166667 16.3459 0.987479 17.1667 2 17.1667V16.1667ZM18.8333 15.3333C18.8333 15.7936 18.4602 16.1667 18 16.1667V17.1667C19.0125 17.1667 19.8333 16.3459 19.8333 15.3333H18.8333ZM18 3.83333C18.4602 3.83333 18.8333 4.20643 18.8333 4.66667H19.8333C19.8333 3.65414 19.0125 2.83333 18 2.83333V3.83333ZM2 2.83333C0.987478 2.83333 0.166667 3.65414 0.166667 4.66667H1.16667C1.16667 4.20643 1.53976 3.83333 2 3.83333V2.83333ZM12 7.83333H16V6.83333H12V7.83333ZM12 11.8333H16V10.8333H12V11.8333ZM0 19.8333H20V18.8333H0V19.8333ZM4.16667 0V3.33333H5.16667V0H4.16667ZM14.8333 0V3.33333H15.8333V0H14.8333Z" fill="#222831"/>
</svg>
