<svg width="21" height="20" viewBox="0 0 21 20" fill="none" xmlns="http://www.w3.org/2000/svg">
<path d="M6.49935 4.66663L6.8529 4.31307C6.65764 4.11781 6.34106 4.11781 6.1458 4.31307L6.49935 4.66663ZM2.49935 1.16663H18.4993V0.166626H2.49935V1.16663ZM19.3327 1.99996V18H20.3327V1.99996H19.3327ZM18.4993 18.8333H2.49935V19.8333H18.4993V18.8333ZM1.66602 18V1.99996H0.666016V18H1.66602ZM2.49935 18.8333C2.03911 18.8333 1.66602 18.4602 1.66602 18H0.666016C0.666016 19.0125 1.48683 19.8333 2.49935 19.8333V18.8333ZM19.3327 18C19.3327 18.4602 18.9596 18.8333 18.4993 18.8333V19.8333C19.5119 19.8333 20.3327 19.0125 20.3327 18H19.3327ZM18.4993 1.16663C18.9596 1.16663 19.3327 1.53972 19.3327 1.99996H20.3327C20.3327 0.987437 19.5119 0.166626 18.4993 0.166626V1.16663ZM2.49935 0.166626C1.48683 0.166626 0.666016 0.987438 0.666016 1.99996H1.66602C1.66602 1.53972 2.03911 1.16663 2.49935 1.16663V0.166626ZM1.16602 14.5H19.8327V13.5H1.16602V14.5ZM1.51957 10.3535L6.8529 5.02018L6.1458 4.31307L0.812462 9.64641L1.51957 10.3535ZM6.1458 5.02018L15.4791 14.3535L16.1862 13.6464L6.8529 4.31307L6.1458 5.02018ZM14.4993 6.83329C14.0391 6.83329 13.666 6.4602 13.666 5.99996H12.666C12.666 7.01248 13.4868 7.83329 14.4993 7.83329V6.83329ZM15.3327 5.99996C15.3327 6.4602 14.9596 6.83329 14.4993 6.83329V7.83329C15.5119 7.83329 16.3327 7.01248 16.3327 5.99996H15.3327ZM14.4993 5.16663C14.9596 5.16663 15.3327 5.53972 15.3327 5.99996H16.3327C16.3327 4.98744 15.5119 4.16663 14.4993 4.16663V5.16663ZM14.4993 4.16663C13.4868 4.16663 12.666 4.98744 12.666 5.99996H13.666C13.666 5.53972 14.0391 5.16663 14.4993 5.16663V4.16663Z" fill="white"/>
</svg>
