<svg width="21" height="20" viewBox="0 0 21 20" fill="none" xmlns="http://www.w3.org/2000/svg">
<path d="M1.16602 12.6666L0.812462 12.3131L0.666016 12.4595V12.6666H1.16602ZM13.166 0.666626L13.5196 0.313073C13.3243 0.11781 13.0077 0.11781 12.8125 0.313073L13.166 0.666626ZM19.8327 7.33329L20.1862 7.68685C20.28 7.59308 20.3327 7.4659 20.3327 7.33329C20.3327 7.20068 20.28 7.07351 20.1862 6.97974L19.8327 7.33329ZM7.83268 19.3333V19.8333H8.03979L8.18624 19.6868L7.83268 19.3333ZM1.16602 19.3333H0.666016C0.666016 19.6094 0.889873 19.8333 1.16602 19.8333V19.3333ZM1.51957 13.0202L13.5196 1.02018L12.8125 0.313073L0.812462 12.3131L1.51957 13.0202ZM12.8125 1.02018L19.4791 7.68685L20.1862 6.97974L13.5196 0.313073L12.8125 1.02018ZM19.4791 6.97974L7.47913 18.9797L8.18624 19.6868L20.1862 7.68685L19.4791 6.97974ZM7.83268 18.8333H1.16602V19.8333H7.83268V18.8333ZM1.66602 19.3333V12.6666H0.666016V19.3333H1.66602ZM8.81246 5.02018L15.4791 11.6868L16.1862 10.9797L9.51957 4.31307L8.81246 5.02018ZM11.166 19.8333H20.4993V18.8333H11.166V19.8333Z" fill="white"/>
</svg>
