<svg width="20" height="20" viewBox="0 0 20 20" fill="none" xmlns="http://www.w3.org/2000/svg">
<path d="M13.9998 19.321V19.821H14.4998V19.321H13.9998ZM0.666504 19.321H0.166504V19.821H0.666504V19.321ZM19.3332 19.3332V19.8332H19.8332V19.3332H19.3332ZM10.8332 4.6639C10.8332 6.59534 9.26667 8.16129 7.33317 8.16129V9.16129C9.81834 9.16129 11.8332 7.14824 11.8332 4.6639H10.8332ZM7.33317 8.16129C5.39967 8.16129 3.83317 6.59534 3.83317 4.6639H2.83317C2.83317 7.14824 4.848 9.16129 7.33317 9.16129V8.16129ZM3.83317 4.6639C3.83317 2.73245 5.39967 1.1665 7.33317 1.1665V0.166504C4.848 0.166504 2.83317 2.17955 2.83317 4.6639H3.83317ZM7.33317 1.1665C9.26667 1.1665 10.8332 2.73245 10.8332 4.6639H11.8332C11.8332 2.17955 9.81834 0.166504 7.33317 0.166504V1.1665ZM13.9998 18.821H0.666504V19.821H13.9998V18.821ZM1.1665 19.321C1.1665 19.3192 1.1665 19.3173 1.1665 19.3155C1.1665 19.3136 1.1665 19.3118 1.1665 19.3099C1.1665 19.3081 1.1665 19.3062 1.1665 19.3044C1.1665 19.3025 1.1665 19.3007 1.1665 19.2988C1.1665 19.297 1.1665 19.2951 1.1665 19.2933C1.1665 19.2914 1.1665 19.2896 1.1665 19.2877C1.1665 19.2859 1.1665 19.2841 1.1665 19.2822C1.1665 19.2804 1.1665 19.2785 1.1665 19.2767C1.1665 19.2748 1.1665 19.273 1.1665 19.2711C1.1665 19.2693 1.1665 19.2674 1.1665 19.2656C1.1665 19.2637 1.1665 19.2619 1.1665 19.2601C1.1665 19.2582 1.1665 19.2564 1.1665 19.2545C1.1665 19.2527 1.1665 19.2508 1.1665 19.249C1.1665 19.2471 1.1665 19.2453 1.1665 19.2435C1.1665 19.2416 1.1665 19.2398 1.1665 19.2379C1.1665 19.2361 1.1665 19.2342 1.1665 19.2324C1.1665 19.2305 1.1665 19.2287 1.1665 19.2269C1.1665 19.225 1.1665 19.2232 1.1665 19.2213C1.1665 19.2195 1.1665 19.2176 1.1665 19.2158C1.1665 19.214 1.1665 19.2121 1.1665 19.2103C1.1665 19.2084 1.1665 19.2066 1.1665 19.2048C1.1665 19.2029 1.1665 19.2011 1.1665 19.1992C1.1665 19.1974 1.1665 19.1955 1.1665 19.1937C1.1665 19.1919 1.1665 19.19 1.1665 19.1882C1.1665 19.1863 1.1665 19.1845 1.1665 19.1827C1.1665 19.1808 1.1665 19.179 1.1665 19.1771C1.1665 19.1753 1.1665 19.1735 1.1665 19.1716C1.1665 19.1698 1.1665 19.1679 1.1665 19.1661C1.1665 19.1643 1.1665 19.1624 1.1665 19.1606C1.1665 19.1588 1.1665 19.1569 1.1665 19.1551C1.1665 19.1532 1.1665 19.1514 1.1665 19.1496C1.1665 19.1477 1.1665 19.1459 1.1665 19.144C1.1665 19.1422 1.1665 19.1404 1.1665 19.1385C1.1665 19.1367 1.1665 19.1349 1.1665 19.133C1.1665 19.1312 1.1665 19.1294 1.1665 19.1275C1.1665 19.1257 1.1665 19.1238 1.1665 19.122C1.1665 19.1202 1.1665 19.1183 1.1665 19.1165C1.1665 19.1147 1.1665 19.1128 1.1665 19.111C1.1665 19.1092 1.1665 19.1073 1.1665 19.1055C1.1665 19.1037 1.1665 19.1018 1.1665 19.1C1.1665 19.0982 1.1665 19.0963 1.1665 19.0945C1.1665 19.0926 1.1665 19.0908 1.1665 19.089C1.1665 19.0871 1.1665 19.0853 1.1665 19.0835C1.1665 19.0816 1.1665 19.0798 1.1665 19.078C1.1665 19.0761 1.1665 19.0743 1.1665 19.0725C1.1665 19.0706 1.1665 19.0688 1.1665 19.067C1.1665 19.0652 1.1665 19.0633 1.1665 19.0615C1.1665 19.0597 1.1665 19.0578 1.1665 19.056C1.1665 19.0542 1.1665 19.0523 1.1665 19.0505C1.1665 19.0487 1.1665 19.0468 1.1665 19.045C1.1665 19.0432 1.1665 19.0413 1.1665 19.0395C1.1665 19.0377 1.1665 19.0359 1.1665 19.034C1.1665 19.0322 1.1665 19.0304 1.1665 19.0285C1.1665 19.0267 1.1665 19.0249 1.1665 19.023C1.1665 19.0212 1.1665 19.0194 1.1665 19.0176C1.1665 19.0157 1.1665 19.0139 1.1665 19.0121C1.1665 19.0102 1.1665 19.0084 1.1665 19.0066C1.1665 19.0048 1.1665 19.0029 1.1665 19.0011C1.1665 18.9993 1.1665 18.9974 1.1665 18.9956C1.1665 18.9938 1.1665 18.992 1.1665 18.9901C1.1665 18.9883 1.1665 18.9865 1.1665 18.9847C1.1665 18.9828 1.1665 18.981 1.1665 18.9792C1.1665 18.9774 1.1665 18.9755 1.1665 18.9737C1.1665 18.9719 1.1665 18.97 1.1665 18.9682C1.1665 18.9664 1.1665 18.9646 1.1665 18.9627C1.1665 18.9609 1.1665 18.9591 1.1665 18.9573C1.1665 18.9555 1.1665 18.9536 1.1665 18.9518C1.1665 18.95 1.1665 18.9482 1.1665 18.9463C1.1665 18.9445 1.1665 18.9427 1.1665 18.9409C1.1665 18.939 1.1665 18.9372 1.1665 18.9354C1.1665 18.9336 1.1665 18.9317 1.1665 18.9299C1.1665 18.9281 1.1665 18.9263 1.1665 18.9245C1.1665 18.9226 1.1665 18.9208 1.1665 18.919C1.1665 18.9172 1.1665 18.9153 1.1665 18.9135C1.1665 18.9117 1.1665 18.9099 1.1665 18.9081C1.1665 18.9062 1.1665 18.9044 1.1665 18.9026C1.1665 18.9008 1.1665 18.899 1.1665 18.8971C1.1665 18.8953 1.1665 18.8935 1.1665 18.8917C1.1665 18.8899 1.1665 18.888 1.1665 18.8862C1.1665 18.8844 1.1665 18.8826 1.1665 18.8808C1.1665 18.8789 1.1665 18.8771 1.1665 18.8753C1.1665 18.8735 1.1665 18.8717 1.1665 18.8698C1.1665 18.868 1.1665 18.8662 1.1665 18.8644C1.1665 18.8626 1.1665 18.8608 1.1665 18.8589C1.1665 18.8571 1.1665 18.8553 1.1665 18.8535C1.1665 18.8517 1.1665 18.8498 1.1665 18.848C1.1665 18.8462 1.1665 18.8444 1.1665 18.8426C1.1665 18.8408 1.1665 18.839 1.1665 18.8371C1.1665 18.8353 1.1665 18.8335 1.1665 18.8317C1.1665 18.8299 1.1665 18.8281 1.1665 18.8262C1.1665 18.8244 1.1665 18.8226 1.1665 18.8208C1.1665 18.819 1.1665 18.8172 1.1665 18.8154C1.1665 18.8135 1.1665 18.8117 1.1665 18.8099C1.1665 18.8081 1.1665 18.8063 1.1665 18.8045C1.1665 18.8027 1.1665 18.8008 1.1665 18.799C1.1665 18.7972 1.1665 18.7954 1.1665 18.7936C1.1665 18.7918 1.1665 18.79 1.1665 18.7882C1.1665 18.7863 1.1665 18.7845 1.1665 18.7827C1.1665 18.7809 1.1665 18.7791 1.1665 18.7773C1.1665 18.7755 1.1665 18.7737 1.1665 18.7719C1.1665 18.77 1.1665 18.7682 1.1665 18.7664C1.1665 18.7646 1.1665 18.7628 1.1665 18.761C1.1665 18.7592 1.1665 18.7574 1.1665 18.7556C1.1665 18.7537 1.1665 18.7519 1.1665 18.7501C1.1665 18.7483 1.1665 18.7465 1.1665 18.7447C1.1665 18.7429 1.1665 18.7411 1.1665 18.7393C1.1665 18.7375 1.1665 18.7357 1.1665 18.7339C1.1665 18.732 1.1665 18.7302 1.1665 18.7284C1.1665 18.7266 1.1665 18.7248 1.1665 18.723C1.1665 18.7212 1.1665 18.7194 1.1665 18.7176C1.1665 18.7158 1.1665 18.714 1.1665 18.7122C1.1665 18.7104 1.1665 18.7085 1.1665 18.7067C1.1665 18.7049 1.1665 18.7031 1.1665 18.7013C1.1665 18.6995 1.1665 18.6977 1.1665 18.6959C1.1665 18.6941 1.1665 18.6923 1.1665 18.6905C1.1665 18.6887 1.1665 18.6869 1.1665 18.6851C1.1665 18.6833 1.1665 18.6815 1.1665 18.6797C1.1665 18.6779 1.1665 18.6761 1.1665 18.6743C1.1665 18.6725 1.1665 18.6707 1.1665 18.6688C1.1665 18.667 1.1665 18.6652 1.1665 18.6634C1.1665 18.6616 1.1665 18.6598 1.1665 18.658C1.1665 18.6562 1.1665 18.6544 1.1665 18.6526C1.1665 18.6508 1.1665 18.649 1.1665 18.6472C1.1665 18.6454 1.1665 18.6436 1.1665 18.6418C1.1665 18.64 1.1665 18.6382 1.1665 18.6364C1.1665 18.6346 1.1665 18.6328 1.1665 18.631C1.1665 18.6292 1.1665 18.6274 1.1665 18.6256C1.1665 18.6238 1.1665 18.622 1.1665 18.6202C1.1665 18.6184 1.1665 18.6166 1.1665 18.6148C1.1665 18.613 1.1665 18.6112 1.1665 18.6094C1.1665 18.6076 1.1665 18.6058 1.1665 18.604C1.1665 18.6022 1.1665 18.6004 1.1665 18.5986C1.1665 18.5968 1.1665 18.595 1.1665 18.5932C1.1665 18.5914 1.1665 18.5896 1.1665 18.5878C1.1665 18.5861 1.1665 18.5843 1.1665 18.5825C1.1665 18.5807 1.1665 18.5789 1.1665 18.5771C1.1665 18.5753 1.1665 18.5735 1.1665 18.5717C1.1665 18.5699 1.1665 18.5681 1.1665 18.5663C1.1665 18.5645 1.1665 18.5627 1.1665 18.5609C1.1665 18.5591 1.1665 18.5573 1.1665 18.5555C1.1665 18.5537 1.1665 18.5519 1.1665 18.5501C1.1665 18.5484 1.1665 18.5466 1.1665 18.5448C1.1665 18.543 1.1665 18.5412 1.1665 18.5394C1.1665 18.5376 1.1665 18.5358 1.1665 18.534C1.1665 18.5322 1.1665 18.5304 1.1665 18.5286C1.1665 18.5268 1.1665 18.525 1.1665 18.5233C1.1665 18.5215 1.1665 18.5197 1.1665 18.5179C1.1665 18.5161 1.1665 18.5143 1.1665 18.5125C1.1665 18.5107 1.1665 18.5089 1.1665 18.5071C1.1665 18.5054 1.1665 18.5036 1.1665 18.5018C1.1665 18.5 1.1665 18.4982 1.1665 18.4964C1.1665 18.4946 1.1665 18.4928 1.1665 18.491C1.1665 18.4892 1.1665 18.4875 1.1665 18.4857C1.1665 18.4839 1.1665 18.4821 1.1665 18.4803C1.1665 18.4785 1.1665 18.4767 1.1665 18.4749C1.1665 18.4732 1.1665 18.4714 1.1665 18.4696C1.1665 18.4678 1.1665 18.466 1.1665 18.4642C1.1665 18.4624 1.1665 18.4606 1.1665 18.4589C1.1665 18.4571 1.1665 18.4553 1.1665 18.4535C1.1665 18.4517 1.1665 18.4499 1.1665 18.4481C1.1665 18.4464 1.1665 18.4446 1.1665 18.4428C1.1665 18.441 1.1665 18.4392 1.1665 18.4374C1.1665 18.4356 1.1665 18.4339 1.1665 18.4321C1.1665 18.4303 1.1665 18.4285 1.1665 18.4267C1.1665 18.4249 1.1665 18.4232 1.1665 18.4214C1.1665 18.4196 1.1665 18.4178 1.1665 18.416C1.1665 18.4142 1.1665 18.4125 1.1665 18.4107C1.1665 18.4089 1.1665 18.4071 1.1665 18.4053C1.1665 18.4036 1.1665 18.4018 1.1665 18.4C1.1665 18.3982 1.1665 18.3964 1.1665 18.3946C1.1665 18.3929 1.1665 18.3911 1.1665 18.3893C1.1665 18.3875 1.1665 18.3857 1.1665 18.384C1.1665 18.3822 1.1665 18.3804 1.1665 18.3786C1.1665 18.3768 1.1665 18.3751 1.1665 18.3733C1.1665 18.3715 1.1665 18.3697 1.1665 18.3679C1.1665 18.3662 1.1665 18.3644 1.1665 18.3626C1.1665 18.3608 1.1665 18.3591 1.1665 18.3573C1.1665 18.3555 1.1665 18.3537 1.1665 18.3519C1.1665 18.3502 1.1665 18.3484 1.1665 18.3466C1.1665 18.3448 1.1665 18.3431 1.1665 18.3413C1.1665 18.3395 1.1665 18.3377 1.1665 18.336C1.1665 18.3342 1.1665 18.3324 1.1665 18.3306C1.1665 18.3289 1.1665 18.3271 1.1665 18.3253C1.1665 18.3235 1.1665 18.3218 1.1665 18.32C1.1665 18.3182 1.1665 18.3164 1.1665 18.3147C1.1665 18.3129 1.1665 18.3111 1.1665 18.3093C1.1665 18.3076 1.1665 18.3058 1.1665 18.304C1.1665 18.3022 1.1665 18.3005 1.1665 18.2987C1.1665 18.2969 1.1665 18.2952 1.1665 18.2934C1.1665 18.2916 1.1665 18.2898 1.1665 18.2881C1.1665 18.2863 1.1665 18.2845 1.1665 18.2827C1.1665 18.281 1.1665 18.2792 1.1665 18.2774C1.1665 18.2757 1.1665 18.2739 1.1665 18.2721C1.1665 18.2704 1.1665 18.2686 1.1665 18.2668C1.1665 18.265 1.1665 18.2633 1.1665 18.2615C1.1665 18.2597 1.1665 18.258 1.1665 18.2562C1.1665 18.2544 1.1665 18.2527 1.1665 18.2509C1.1665 18.2491 1.1665 18.2474 1.1665 18.2456C1.1665 18.2438 1.1665 18.242 1.1665 18.2403C1.1665 18.2385 1.1665 18.2367 1.1665 18.235C1.1665 18.2332 1.1665 18.2314 1.1665 18.2297C1.1665 18.2279 1.1665 18.2261 1.1665 18.2244C1.1665 18.2226 1.1665 18.2208 1.1665 18.2191C1.1665 18.2173 1.1665 18.2155 1.1665 18.2138C1.1665 18.212 1.1665 18.2103 1.1665 18.2085C1.1665 18.2067 1.1665 18.205 1.1665 18.2032C1.1665 18.2014 1.1665 18.1997 1.1665 18.1979C1.1665 18.1961 1.1665 18.1944 1.1665 18.1926C1.1665 18.1908 1.1665 18.1891 1.1665 18.1873C1.1665 18.1856 1.1665 18.1838 1.1665 18.182C1.1665 18.1803 1.1665 18.1785 1.1665 18.1767C1.1665 18.175 1.1665 18.1732 1.1665 18.1715C1.1665 18.1697 1.1665 18.1679 1.1665 18.1662C1.1665 18.1644 1.1665 18.1627 1.1665 18.1609C1.1665 18.1591 1.1665 18.1574 1.1665 18.1556C1.1665 18.1539 1.1665 18.1521 1.1665 18.1503C1.1665 18.1486 1.1665 18.1468 1.1665 18.1451C1.1665 18.1433 1.1665 18.1415 1.1665 18.1398C1.1665 18.138 1.1665 18.1363 1.1665 18.1345C1.1665 18.1327 1.1665 18.131 1.1665 18.1292C1.1665 18.1275 1.1665 18.1257 1.1665 18.124C1.1665 18.1222 1.1665 18.1204 1.1665 18.1187C1.1665 18.1169 1.1665 18.1152 1.1665 18.1134C1.1665 18.1117 1.1665 18.1099 1.1665 18.1081C1.1665 18.1064 1.1665 18.1046 1.1665 18.1029C1.1665 18.1011 1.1665 18.0994 1.1665 18.0976C1.1665 18.0959 1.1665 18.0941 1.1665 18.0924C1.1665 18.0906 1.1665 18.0888 1.1665 18.0871C1.1665 18.0853 1.1665 18.0836 1.1665 18.0818C1.1665 18.0801 1.1665 18.0783 1.1665 18.0766C1.1665 18.0748 1.1665 18.0731 1.1665 18.0713C1.1665 18.0696 1.1665 18.0678 1.1665 18.0661C1.1665 18.0643 1.1665 18.0626 1.1665 18.0608C1.1665 18.059 1.1665 18.0573 1.1665 18.0555C1.1665 18.0538 1.1665 18.052 1.1665 18.0503C1.1665 18.0485 1.1665 18.0468 1.1665 18.045C1.1665 18.0433 1.1665 18.0415 1.1665 18.0398C1.1665 18.038 1.1665 18.0363 1.1665 18.0345C1.1665 18.0328 1.1665 18.0311 1.1665 18.0293C1.1665 18.0276 1.1665 18.0258 1.1665 18.0241C1.1665 18.0223 1.1665 18.0206 1.1665 18.0188C1.1665 18.0171 1.1665 18.0153 1.1665 18.0136C1.1665 18.0118 1.1665 18.0101 1.1665 18.0083C1.1665 18.0066 1.1665 18.0048 1.1665 18.0031C1.1665 18.0013 1.1665 17.9996 1.1665 17.9979C1.1665 17.9961 1.1665 17.9944 1.1665 17.9926C1.1665 17.9909 1.1665 17.9891 1.1665 17.9874C1.1665 17.9856 1.1665 17.9839 1.1665 17.9822C1.1665 17.9804 1.1665 17.9787 1.1665 17.9769C1.1665 17.9752 1.1665 17.9734 1.1665 17.9717C1.1665 17.9699 1.1665 17.9682 1.1665 17.9665C1.1665 17.9647 1.1665 17.963 1.1665 17.9612C1.1665 17.9595 1.1665 17.9578 1.1665 17.956C1.1665 17.9543 1.1665 17.9525 1.1665 17.9508C1.1665 17.949 1.1665 17.9473 1.1665 17.9456C1.1665 17.9438 1.1665 17.9421 1.1665 17.9403C1.1665 17.9386 1.1665 17.9369 1.1665 17.9351C1.1665 17.9334 1.1665 17.9316 1.1665 17.9299C1.1665 17.9282 1.1665 17.9264 1.1665 17.9247C1.1665 17.923 1.1665 17.9212 1.1665 17.9195C1.1665 17.9177 1.1665 17.916 1.1665 17.9143C1.1665 17.9125 1.1665 17.9108 1.1665 17.909C1.1665 17.9073 1.1665 17.9056 1.1665 17.9038C1.1665 17.9021 1.1665 17.9004 1.1665 17.8986C1.1665 17.8969 1.1665 17.8952 1.1665 17.8934C1.1665 17.8917 1.1665 17.89 1.1665 17.8882C1.1665 17.8865 1.1665 17.8847 1.1665 17.883C1.1665 17.8813 1.1665 17.8795 1.1665 17.8778C1.1665 17.8761 1.1665 17.8743 1.1665 17.8726C1.1665 17.8709 1.1665 17.8691 1.1665 17.8674C1.1665 17.8657 1.1665 17.8639 1.1665 17.8622C1.1665 17.8605 1.1665 17.8587 1.1665 17.857C1.1665 17.8553 1.1665 17.8535 1.1665 17.8518C1.1665 17.8501 1.1665 17.8484 1.1665 17.8466C1.1665 17.8449 1.1665 17.8432 1.1665 17.8414C1.1665 17.8397 1.1665 17.838 1.1665 17.8362C1.1665 17.8345 1.1665 17.8328 1.1665 17.8311C1.1665 17.8293 1.1665 17.8276 1.1665 17.8259C1.1665 17.8241 1.1665 17.8224 1.1665 17.8207C1.1665 17.819 1.1665 17.8172 1.1665 17.8155C1.1665 17.8138 1.1665 17.812 1.1665 17.8103C1.1665 17.8086 1.1665 17.8069 1.1665 17.8051C1.1665 17.8034 1.1665 17.8017 1.1665 17.7999C1.1665 17.7982 1.1665 17.7965 1.1665 17.7948C1.1665 17.793 1.1665 17.7913 1.1665 17.7896C1.1665 17.7879 1.1665 17.7861 1.1665 17.7844C1.1665 17.7827 1.1665 17.781 1.1665 17.7792C1.1665 17.7775 1.1665 17.7758 1.1665 17.7741C1.1665 17.7724 1.1665 17.7706 1.1665 17.7689C1.1665 17.7672 1.1665 17.7655 1.1665 17.7637C1.1665 17.762 1.1665 17.7603 1.1665 17.7586C1.1665 17.7568 1.1665 17.7551 1.1665 17.7534C1.1665 17.7517 1.1665 17.75 1.1665 17.7482C1.1665 17.7465 1.1665 17.7448 1.1665 17.7431C1.1665 17.7414 1.1665 17.7396 1.1665 17.7379C1.1665 17.7362 1.1665 17.7345 1.1665 17.7328C1.1665 17.731 1.1665 17.7293 1.1665 17.7276C1.1665 17.7259 1.1665 17.7242 1.1665 17.7224C1.1665 17.7207 1.1665 17.719 1.1665 17.7173C1.1665 17.7156 1.1665 17.7138 1.1665 17.7121C1.1665 17.7104 1.1665 17.7087 1.1665 17.707C1.1665 17.7053 1.1665 17.7035 1.1665 17.7018C1.1665 17.7001 1.1665 17.6984 1.1665 17.6967C1.1665 17.695 1.1665 17.6932 1.1665 17.6915C1.1665 17.6898 1.1665 17.6881 1.1665 17.6864C1.1665 17.6847 1.1665 17.683 1.1665 17.6812C1.1665 17.6795 1.1665 17.6778 1.1665 17.6761C1.1665 17.6744 1.1665 17.6727 1.1665 17.671C1.1665 17.6692 1.1665 17.6675 1.1665 17.6658C1.1665 17.6641 1.1665 17.6624 1.1665 17.6607C1.1665 17.659 1.1665 17.6573 1.1665 17.6556C1.1665 17.6538 1.1665 17.6521 1.1665 17.6504C1.1665 17.6487 1.1665 17.647 1.1665 17.6453C1.1665 17.6436 1.1665 17.6419 1.1665 17.6402C1.1665 17.6384 1.1665 17.6367 1.1665 17.635C1.1665 17.6333 1.1665 17.6316 1.1665 17.6299C1.1665 17.6282 1.1665 17.6265 1.1665 17.6248C1.1665 17.6231 1.1665 17.6214 1.1665 17.6196C1.1665 17.6179 1.1665 17.6162 1.1665 17.6145C1.1665 17.6128 1.1665 17.6111 1.1665 17.6094C1.1665 17.6077 1.1665 17.606 1.1665 17.6043C1.1665 17.6026 1.1665 17.6009 1.1665 17.5992C1.1665 17.5975 1.1665 17.5957 1.1665 17.594C1.1665 17.5923 1.1665 17.5906 1.1665 17.5889C1.1665 17.5872 1.1665 17.5855 1.1665 17.5838C1.1665 17.5821 1.1665 17.5804 1.1665 17.5787C1.1665 17.577 1.1665 17.5753 1.1665 17.5736C1.1665 17.5719 1.1665 17.5702 1.1665 17.5685C1.1665 17.5668 1.1665 17.5651 1.1665 17.5634C1.1665 17.5617 1.1665 17.56 1.1665 17.5583C1.1665 17.5566 1.1665 17.5549 1.1665 17.5532C1.1665 17.5515 1.1665 17.5498 1.1665 17.5481C1.1665 17.5464 1.1665 17.5447 1.1665 17.543C1.1665 17.5413 1.1665 17.5396 1.1665 17.5379C1.1665 17.5362 1.1665 17.5345 1.1665 17.5328C1.1665 17.5311 1.1665 17.5294 1.1665 17.5277C1.1665 17.526 1.1665 17.5243 1.1665 17.5226C1.1665 17.5209 1.1665 17.5192 1.1665 17.5175C1.1665 17.5158 1.1665 17.5141 1.1665 17.5124C1.1665 17.5107 1.1665 17.509 1.1665 17.5073C1.1665 17.5056 1.1665 17.5039 1.1665 17.5022C1.1665 17.5005 1.1665 17.4988 1.1665 17.4971C1.1665 17.4954 1.1665 17.4937 1.1665 17.4921C1.1665 17.4904 1.1665 17.4887 1.1665 17.487C1.1665 17.4853 1.1665 17.4836 1.1665 17.4819C1.1665 17.4802 1.1665 17.4785 1.1665 17.4768C1.1665 17.4751 1.1665 17.4734 1.1665 17.4717C1.1665 17.47 1.1665 17.4684 1.1665 17.4667C1.1665 17.465 1.1665 17.4633 1.1665 17.4616C1.1665 17.4599 1.1665 17.4582 1.1665 17.4565C1.1665 17.4548 1.1665 17.4531 1.1665 17.4514C1.1665 17.4498 1.1665 17.4481 1.1665 17.4464C1.1665 17.4447 1.1665 17.443 1.1665 17.4413C1.1665 17.4396 1.1665 17.4379 1.1665 17.4362C1.1665 17.4346 1.1665 17.4329 1.1665 17.4312C1.1665 17.4295 1.1665 17.4278 1.1665 17.4261C1.1665 17.4244 1.1665 17.4227 1.1665 17.4211C1.1665 17.4194 1.1665 17.4177 1.1665 17.416C1.1665 17.4143 1.1665 17.4126 1.1665 17.4109C1.1665 17.4093 1.1665 17.4076 1.1665 17.4059C1.1665 17.4042 1.1665 17.4025 1.1665 17.4008C1.1665 17.3991 1.1665 17.3975 1.1665 17.3958C1.1665 17.3941 1.1665 17.3924 1.1665 17.3907C1.1665 17.389 1.1665 17.3874 1.1665 17.3857C1.1665 17.384 1.1665 17.3823 1.1665 17.3806C1.1665 17.3789 1.1665 17.3773 1.1665 17.3756C1.1665 17.3739 1.1665 17.3722 1.1665 17.3705C1.1665 17.3689 1.1665 17.3672 1.1665 17.3655C1.1665 17.3638 1.1665 17.3621 1.1665 17.3605C1.1665 17.3588 1.1665 17.3571 1.1665 17.3554C1.1665 17.3537 1.1665 17.3521 1.1665 17.3504C1.1665 17.3487 1.1665 17.347 1.1665 17.3453C1.1665 17.3437 1.1665 17.342 1.1665 17.3403C1.1665 17.3386 1.1665 17.337 1.1665 17.3353C1.1665 17.3336 1.1665 17.3319 1.1665 17.3303C1.1665 17.3286 1.1665 17.3269 1.1665 17.3252C1.1665 17.3235 1.1665 17.3219 1.1665 17.3202C1.1665 17.3185 1.1665 17.3168 1.1665 17.3152C1.1665 17.3135 1.1665 17.3118 1.1665 17.3101C1.1665 17.3085 1.1665 17.3068 1.1665 17.3051C1.1665 17.3035 1.1665 17.3018 1.1665 17.3001C1.1665 17.2984 1.1665 17.2968 1.1665 17.2951C1.1665 17.2934 1.1665 17.2917 1.1665 17.2901C1.1665 17.2884 1.1665 17.2867 1.1665 17.2851C1.1665 17.2834 1.1665 17.2817 1.1665 17.28C1.1665 17.2784 1.1665 17.2767 1.1665 17.275C1.1665 17.2734 1.1665 17.2717 1.1665 17.27C1.1665 17.2684 1.1665 17.2667 1.1665 17.265C1.1665 17.2633 1.1665 17.2617 1.1665 17.26C1.1665 17.2583 1.1665 17.2567 1.1665 17.255C1.1665 17.2533 1.1665 17.2517 1.1665 17.25C1.1665 17.2483 1.1665 17.2467 1.1665 17.245C1.1665 17.2433 1.1665 17.2417 1.1665 17.24C1.1665 17.2383 1.1665 17.2367 1.1665 17.235C1.1665 17.2333 1.1665 17.2317 1.1665 17.23C1.1665 17.2283 1.1665 17.2267 1.1665 17.225C1.1665 17.2234 1.1665 17.2217 1.1665 17.22C1.1665 17.2184 1.1665 17.2167 1.1665 17.215C1.1665 17.2134 1.1665 17.2117 1.1665 17.21C1.1665 17.2084 1.1665 17.2067 1.1665 17.2051C1.1665 17.2034 1.1665 17.2017 1.1665 17.2001C1.1665 17.1984 1.1665 17.1967 1.1665 17.1951C1.1665 17.1934 1.1665 17.1918 1.1665 17.1901C1.1665 17.1884 1.1665 17.1868 1.1665 17.1851C1.1665 17.1835 1.1665 17.1818 1.1665 17.1801C1.1665 17.1785 1.1665 17.1768 1.1665 17.1752C1.1665 17.1735 1.1665 17.1719 1.1665 17.1702C1.1665 17.1685 1.1665 17.1669 1.1665 17.1652C1.1665 17.1636 1.1665 17.1619 1.1665 17.1603C1.1665 17.1586 1.1665 17.1569 1.1665 17.1553C1.1665 17.1536 1.1665 17.152 1.1665 17.1503C1.1665 17.1487 1.1665 17.147 1.1665 17.1453C1.1665 17.1437 1.1665 17.142 1.1665 17.1404C1.1665 17.1387 1.1665 17.1371 1.1665 17.1354C1.1665 17.1338 1.1665 17.1321 1.1665 17.1305C1.1665 17.1288 1.1665 17.1272 1.1665 17.1255C1.1665 17.1239 1.1665 17.1222 1.1665 17.1205C1.1665 17.1189 1.1665 17.1172 1.1665 17.1156C1.1665 17.1139 1.1665 17.1123 1.1665 17.1106C1.1665 17.109 1.1665 17.1073 1.1665 17.1057C1.1665 17.104 1.1665 17.1024 1.1665 17.1007C1.1665 17.0991 1.1665 17.0974 1.1665 17.0958C1.1665 17.0941 1.1665 17.0925 1.1665 17.0908C1.1665 17.0892 1.1665 17.0875 1.1665 17.0859C1.1665 17.0843 1.1665 17.0826 1.1665 17.081C1.1665 17.0793 1.1665 17.0777 1.1665 17.076C1.1665 17.0744 1.1665 17.0727 1.1665 17.0711C1.1665 17.0694 1.1665 17.0678 1.1665 17.0661C1.1665 17.0645 1.1665 17.0628 1.1665 17.0612C1.1665 17.0596 1.1665 17.0579 1.1665 17.0563C1.1665 17.0546 1.1665 17.053 1.1665 17.0513C1.1665 17.0497 1.1665 17.048 1.1665 17.0464C1.1665 17.0448 1.1665 17.0431 1.1665 17.0415C1.1665 17.0398 1.1665 17.0382 1.1665 17.0366C1.1665 17.0349 1.1665 17.0333 1.1665 17.0316C1.1665 17.03 1.1665 17.0283 1.1665 17.0267C1.1665 17.0251 1.1665 17.0234 1.1665 17.0218C1.1665 17.0201 1.1665 17.0185 1.1665 17.0169C1.1665 17.0152 1.1665 17.0136 1.1665 17.0119C1.1665 17.0103 1.1665 17.0087 1.1665 17.007C1.1665 17.0054 1.1665 17.0038 1.1665 17.0021C1.1665 17.0005 1.1665 16.9988 1.1665 16.9972C1.1665 16.9956 1.1665 16.9939 1.1665 16.9923C1.1665 16.9907 1.1665 16.989 1.1665 16.9874C1.1665 16.9858 1.1665 16.9841 1.1665 16.9825C1.1665 16.9808 1.1665 16.9792 1.1665 16.9776C1.1665 16.9759 1.1665 16.9743 1.1665 16.9727C1.1665 16.971 1.1665 16.9694 1.1665 16.9678C1.1665 16.9661 1.1665 16.9645 1.1665 16.9629C1.1665 16.9612 1.1665 16.9596 1.1665 16.958C1.1665 16.9563 1.1665 16.9547 1.1665 16.9531C1.1665 16.9515 1.1665 16.9498 1.1665 16.9482C1.1665 16.9466 1.1665 16.9449 1.1665 16.9433C1.1665 16.9417 1.1665 16.94 1.1665 16.9384C1.1665 16.9368 1.1665 16.9351 1.1665 16.9335C1.1665 16.9319 1.1665 16.9303 1.1665 16.9286C1.1665 16.927 1.1665 16.9254 1.1665 16.9237C1.1665 16.9221 1.1665 16.9205 1.1665 16.9189C1.1665 16.9172 1.1665 16.9156 1.1665 16.914C1.1665 16.9124 1.1665 16.9107 1.1665 16.9091C1.1665 16.9075 1.1665 16.9059 1.1665 16.9042C1.1665 16.9026 1.1665 16.901 1.1665 16.8994C1.1665 16.8977 1.1665 16.8961 1.1665 16.8945C1.1665 16.8929 1.1665 16.8912 1.1665 16.8896C1.1665 16.888 1.1665 16.8864 1.1665 16.8847C1.1665 16.8831 1.1665 16.8815 1.1665 16.8799C1.1665 16.8783 1.1665 16.8766 1.1665 16.875C1.1665 16.8734 1.1665 16.8718 1.1665 16.8701C1.1665 16.8685 1.1665 16.8669 1.1665 16.8653C1.1665 16.8637 1.1665 16.862 1.1665 16.8604C1.1665 16.8588 1.1665 16.8572 1.1665 16.8556C1.1665 16.8539 1.1665 16.8523 1.1665 16.8507C1.1665 16.8491 1.1665 16.8475 1.1665 16.8459C1.1665 16.8442 1.1665 16.8426 1.1665 16.841C1.1665 16.8394 1.1665 16.8378 1.1665 16.8361C1.1665 16.8345 1.1665 16.8329 1.1665 16.8313C1.1665 16.8297 1.1665 16.8281 1.1665 16.8265C1.1665 16.8248 1.1665 16.8232 1.1665 16.8216C1.1665 16.82 1.1665 16.8184 1.1665 16.8168C1.1665 16.8151 1.1665 16.8135 1.1665 16.8119C1.1665 16.8103 1.1665 16.8087 1.1665 16.8071C1.1665 16.8055 1.1665 16.8039 1.1665 16.8022C1.1665 16.8006 1.1665 16.799 1.1665 16.7974C1.1665 16.7958 1.1665 16.7942 1.1665 16.7926C1.1665 16.791 1.1665 16.7894 1.1665 16.7877C1.1665 16.7861 1.1665 16.7845 1.1665 16.7829C1.1665 16.7813 1.1665 16.7797 1.1665 16.7781C1.1665 16.7765 1.1665 16.7749 1.1665 16.7733C1.1665 16.7717 1.1665 16.77 1.1665 16.7684C1.1665 16.7668 1.1665 16.7652 1.1665 16.7636C1.1665 16.762 1.1665 16.7604 1.1665 16.7588C1.1665 16.7572 1.1665 16.7556 1.1665 16.754C1.1665 16.7524 1.1665 16.7508 1.1665 16.7492C1.1665 16.7476 1.1665 16.7459 1.1665 16.7443C1.1665 16.7427 1.1665 16.7411 1.1665 16.7395C1.1665 16.7379 1.1665 16.7363 1.1665 16.7347C1.1665 16.7331 1.1665 16.7315 1.1665 16.7299C1.1665 16.7283 1.1665 16.7267 1.1665 16.7251C1.1665 16.7235 1.1665 16.7219 1.1665 16.7203C1.1665 16.7187 1.1665 16.7171 1.1665 16.7155C1.1665 16.7139 1.1665 16.7123 1.1665 16.7107C1.1665 16.7091 1.1665 16.7075 1.1665 16.7059C1.1665 16.7043 1.1665 16.7027 1.1665 16.7011C1.1665 16.6995 1.1665 16.6979 1.1665 16.6963C1.1665 16.6947 1.1665 16.6931 1.1665 16.6915C1.1665 16.6899 1.1665 16.6883 1.1665 16.6867C1.1665 16.6851 1.1665 16.6835 1.1665 16.6819C1.1665 16.6803 1.1665 16.6787 1.1665 16.6771C1.1665 16.6755 1.1665 16.6739 1.1665 16.6724C1.1665 16.6708 1.1665 16.6692 1.1665 16.6676C1.1665 16.666 1.1665 16.6644 1.1665 16.6628C1.1665 16.6612 1.1665 16.6596 1.1665 16.658H0.166504C0.166504 16.6596 0.166504 16.6612 0.166504 16.6628C0.166504 16.6644 0.166504 16.666 0.166504 16.6676C0.166504 16.6692 0.166504 16.6708 0.166504 16.6724C0.166504 16.6739 0.166504 16.6755 0.166504 16.6771C0.166504 16.6787 0.166504 16.6803 0.166504 16.6819C0.166504 16.6835 0.166504 16.6851 0.166504 16.6867C0.166504 16.6883 0.166504 16.6899 0.166504 16.6915C0.166504 16.6931 0.166504 16.6947 0.166504 16.6963C0.166504 16.6979 0.166504 16.6995 0.166504 16.7011C0.166504 16.7027 0.166504 16.7043 0.166504 16.7059C0.166504 16.7075 0.166504 16.7091 0.166504 16.7107C0.166504 16.7123 0.166504 16.7139 0.166504 16.7155C0.166504 16.7171 0.166504 16.7187 0.166504 16.7203C0.166504 16.7219 0.166504 16.7235 0.166504 16.7251C0.166504 16.7267 0.166504 16.7283 0.166504 16.7299C0.166504 16.7315 0.166504 16.7331 0.166504 16.7347C0.166504 16.7363 0.166504 16.7379 0.166504 16.7395C0.166504 16.7411 0.166504 16.7427 0.166504 16.7443C0.166504 16.7459 0.166504 16.7476 0.166504 16.7492C0.166504 16.7508 0.166504 16.7524 0.166504 16.754C0.166504 16.7556 0.166504 16.7572 0.166504 16.7588C0.166504 16.7604 0.166504 16.762 0.166504 16.7636C0.166504 16.7652 0.166504 16.7668 0.166504 16.7684C0.166504 16.77 0.166504 16.7717 0.166504 16.7733C0.166504 16.7749 0.166504 16.7765 0.166504 16.7781C0.166504 16.7797 0.166504 16.7813 0.166504 16.7829C0.166504 16.7845 0.166504 16.7861 0.166504 16.7877C0.166504 16.7894 0.166504 16.791 0.166504 16.7926C0.166504 16.7942 0.166504 16.7958 0.166504 16.7974C0.166504 16.799 0.166504 16.8006 0.166504 16.8022C0.166504 16.8039 0.166504 16.8055 0.166504 16.8071C0.166504 16.8087 0.166504 16.8103 0.166504 16.8119C0.166504 16.8135 0.166504 16.8151 0.166504 16.8168C0.166504 16.8184 0.166504 16.82 0.166504 16.8216C0.166504 16.8232 0.166504 16.8248 0.166504 16.8265C0.166504 16.8281 0.166504 16.8297 0.166504 16.8313C0.166504 16.8329 0.166504 16.8345 0.166504 16.8361C0.166504 16.8378 0.166504 16.8394 0.166504 16.841C0.166504 16.8426 0.166504 16.8442 0.166504 16.8459C0.166504 16.8475 0.166504 16.8491 0.166504 16.8507C0.166504 16.8523 0.166504 16.8539 0.166504 16.8556C0.166504 16.8572 0.166504 16.8588 0.166504 16.8604C0.166504 16.862 0.166504 16.8637 0.166504 16.8653C0.166504 16.8669 0.166504 16.8685 0.166504 16.8701C0.166504 16.8718 0.166504 16.8734 0.166504 16.875C0.166504 16.8766 0.166504 16.8783 0.166504 16.8799C0.166504 16.8815 0.166504 16.8831 0.166504 16.8847C0.166504 16.8864 0.166504 16.888 0.166504 16.8896C0.166504 16.8912 0.166504 16.8929 0.166504 16.8945C0.166504 16.8961 0.166504 16.8977 0.166504 16.8994C0.166504 16.901 0.166504 16.9026 0.166504 16.9042C0.166504 16.9059 0.166504 16.9075 0.166504 16.9091C0.166504 16.9107 0.166504 16.9124 0.166504 16.914C0.166504 16.9156 0.166504 16.9172 0.166504 16.9189C0.166504 16.9205 0.166504 16.9221 0.166504 16.9237C0.166504 16.9254 0.166504 16.927 0.166504 16.9286C0.166504 16.9303 0.166504 16.9319 0.166504 16.9335C0.166504 16.9351 0.166504 16.9368 0.166504 16.9384C0.166504 16.94 0.166504 16.9417 0.166504 16.9433C0.166504 16.9449 0.166504 16.9466 0.166504 16.9482C0.166504 16.9498 0.166504 16.9515 0.166504 16.9531C0.166504 16.9547 0.166504 16.9563 0.166504 16.958C0.166504 16.9596 0.166504 16.9612 0.166504 16.9629C0.166504 16.9645 0.166504 16.9661 0.166504 16.9678C0.166504 16.9694 0.166504 16.971 0.166504 16.9727C0.166504 16.9743 0.166504 16.9759 0.166504 16.9776C0.166504 16.9792 0.166504 16.9808 0.166504 16.9825C0.166504 16.9841 0.166504 16.9858 0.166504 16.9874C0.166504 16.989 0.166504 16.9907 0.166504 16.9923C0.166504 16.9939 0.166504 16.9956 0.166504 16.9972C0.166504 16.9988 0.166504 17.0005 0.166504 17.0021C0.166504 17.0038 0.166504 17.0054 0.166504 17.007C0.166504 17.0087 0.166504 17.0103 0.166504 17.0119C0.166504 17.0136 0.166504 17.0152 0.166504 17.0169C0.166504 17.0185 0.166504 17.0201 0.166504 17.0218C0.166504 17.0234 0.166504 17.0251 0.166504 17.0267C0.166504 17.0283 0.166504 17.03 0.166504 17.0316C0.166504 17.0333 0.166504 17.0349 0.166504 17.0366C0.166504 17.0382 0.166504 17.0398 0.166504 17.0415C0.166504 17.0431 0.166504 17.0448 0.166504 17.0464C0.166504 17.048 0.166504 17.0497 0.166504 17.0513C0.166504 17.053 0.166504 17.0546 0.166504 17.0563C0.166504 17.0579 0.166504 17.0596 0.166504 17.0612C0.166504 17.0628 0.166504 17.0645 0.166504 17.0661C0.166504 17.0678 0.166504 17.0694 0.166504 17.0711C0.166504 17.0727 0.166504 17.0744 0.166504 17.076C0.166504 17.0777 0.166504 17.0793 0.166504 17.081C0.166504 17.0826 0.166504 17.0843 0.166504 17.0859C0.166504 17.0875 0.166504 17.0892 0.166504 17.0908C0.166504 17.0925 0.166504 17.0941 0.166504 17.0958C0.166504 17.0974 0.166504 17.0991 0.166504 17.1007C0.166504 17.1024 0.166504 17.104 0.166504 17.1057C0.166504 17.1073 0.166504 17.109 0.166504 17.1106C0.166504 17.1123 0.166504 17.1139 0.166504 17.1156C0.166504 17.1172 0.166504 17.1189 0.166504 17.1205C0.166504 17.1222 0.166504 17.1239 0.166504 17.1255C0.166504 17.1272 0.166504 17.1288 0.166504 17.1305C0.166504 17.1321 0.166504 17.1338 0.166504 17.1354C0.166504 17.1371 0.166504 17.1387 0.166504 17.1404C0.166504 17.142 0.166504 17.1437 0.166504 17.1453C0.166504 17.147 0.166504 17.1487 0.166504 17.1503C0.166504 17.152 0.166504 17.1536 0.166504 17.1553C0.166504 17.1569 0.166504 17.1586 0.166504 17.1603C0.166504 17.1619 0.166504 17.1636 0.166504 17.1652C0.166504 17.1669 0.166504 17.1685 0.166504 17.1702C0.166504 17.1719 0.166504 17.1735 0.166504 17.1752C0.166504 17.1768 0.166504 17.1785 0.166504 17.1801C0.166504 17.1818 0.166504 17.1835 0.166504 17.1851C0.166504 17.1868 0.166504 17.1884 0.166504 17.1901C0.166504 17.1918 0.166504 17.1934 0.166504 17.1951C0.166504 17.1967 0.166504 17.1984 0.166504 17.2001C0.166504 17.2017 0.166504 17.2034 0.166504 17.2051C0.166504 17.2067 0.166504 17.2084 0.166504 17.21C0.166504 17.2117 0.166504 17.2134 0.166504 17.215C0.166504 17.2167 0.166504 17.2184 0.166504 17.22C0.166504 17.2217 0.166504 17.2234 0.166504 17.225C0.166504 17.2267 0.166504 17.2283 0.166504 17.23C0.166504 17.2317 0.166504 17.2333 0.166504 17.235C0.166504 17.2367 0.166504 17.2383 0.166504 17.24C0.166504 17.2417 0.166504 17.2433 0.166504 17.245C0.166504 17.2467 0.166504 17.2483 0.166504 17.25C0.166504 17.2517 0.166504 17.2533 0.166504 17.255C0.166504 17.2567 0.166504 17.2583 0.166504 17.26C0.166504 17.2617 0.166504 17.2633 0.166504 17.265C0.166504 17.2667 0.166504 17.2684 0.166504 17.27C0.166504 17.2717 0.166504 17.2734 0.166504 17.275C0.166504 17.2767 0.166504 17.2784 0.166504 17.28C0.166504 17.2817 0.166504 17.2834 0.166504 17.2851C0.166504 17.2867 0.166504 17.2884 0.166504 17.2901C0.166504 17.2917 0.166504 17.2934 0.166504 17.2951C0.166504 17.2968 0.166504 17.2984 0.166504 17.3001C0.166504 17.3018 0.166504 17.3035 0.166504 17.3051C0.166504 17.3068 0.166504 17.3085 0.166504 17.3101C0.166504 17.3118 0.166504 17.3135 0.166504 17.3152C0.166504 17.3168 0.166504 17.3185 0.166504 17.3202C0.166504 17.3219 0.166504 17.3235 0.166504 17.3252C0.166504 17.3269 0.166504 17.3286 0.166504 17.3303C0.166504 17.3319 0.166504 17.3336 0.166504 17.3353C0.166504 17.337 0.166504 17.3386 0.166504 17.3403C0.166504 17.342 0.166504 17.3437 0.166504 17.3453C0.166504 17.347 0.166504 17.3487 0.166504 17.3504C0.166504 17.3521 0.166504 17.3537 0.166504 17.3554C0.166504 17.3571 0.166504 17.3588 0.166504 17.3605C0.166504 17.3621 0.166504 17.3638 0.166504 17.3655C0.166504 17.3672 0.166504 17.3689 0.166504 17.3705C0.166504 17.3722 0.166504 17.3739 0.166504 17.3756C0.166504 17.3773 0.166504 17.3789 0.166504 17.3806C0.166504 17.3823 0.166504 17.384 0.166504 17.3857C0.166504 17.3874 0.166504 17.389 0.166504 17.3907C0.166504 17.3924 0.166504 17.3941 0.166504 17.3958C0.166504 17.3975 0.166504 17.3991 0.166504 17.4008C0.166504 17.4025 0.166504 17.4042 0.166504 17.4059C0.166504 17.4076 0.166504 17.4093 0.166504 17.4109C0.166504 17.4126 0.166504 17.4143 0.166504 17.416C0.166504 17.4177 0.166504 17.4194 0.166504 17.4211C0.166504 17.4227 0.166504 17.4244 0.166504 17.4261C0.166504 17.4278 0.166504 17.4295 0.166504 17.4312C0.166504 17.4329 0.166504 17.4346 0.166504 17.4362C0.166504 17.4379 0.166504 17.4396 0.166504 17.4413C0.166504 17.443 0.166504 17.4447 0.166504 17.4464C0.166504 17.4481 0.166504 17.4498 0.166504 17.4514C0.166504 17.4531 0.166504 17.4548 0.166504 17.4565C0.166504 17.4582 0.166504 17.4599 0.166504 17.4616C0.166504 17.4633 0.166504 17.465 0.166504 17.4667C0.166504 17.4684 0.166504 17.47 0.166504 17.4717C0.166504 17.4734 0.166504 17.4751 0.166504 17.4768C0.166504 17.4785 0.166504 17.4802 0.166504 17.4819C0.166504 17.4836 0.166504 17.4853 0.166504 17.487C0.166504 17.4887 0.166504 17.4904 0.166504 17.4921C0.166504 17.4937 0.166504 17.4954 0.166504 17.4971C0.166504 17.4988 0.166504 17.5005 0.166504 17.5022C0.166504 17.5039 0.166504 17.5056 0.166504 17.5073C0.166504 17.509 0.166504 17.5107 0.166504 17.5124C0.166504 17.5141 0.166504 17.5158 0.166504 17.5175C0.166504 17.5192 0.166504 17.5209 0.166504 17.5226C0.166504 17.5243 0.166504 17.526 0.166504 17.5277C0.166504 17.5294 0.166504 17.5311 0.166504 17.5328C0.166504 17.5345 0.166504 17.5362 0.166504 17.5379C0.166504 17.5396 0.166504 17.5413 0.166504 17.543C0.166504 17.5447 0.166504 17.5464 0.166504 17.5481C0.166504 17.5498 0.166504 17.5515 0.166504 17.5532C0.166504 17.5549 0.166504 17.5566 0.166504 17.5583C0.166504 17.56 0.166504 17.5617 0.166504 17.5634C0.166504 17.5651 0.166504 17.5668 0.166504 17.5685C0.166504 17.5702 0.166504 17.5719 0.166504 17.5736C0.166504 17.5753 0.166504 17.577 0.166504 17.5787C0.166504 17.5804 0.166504 17.5821 0.166504 17.5838C0.166504 17.5855 0.166504 17.5872 0.166504 17.5889C0.166504 17.5906 0.166504 17.5923 0.166504 17.594C0.166504 17.5957 0.166504 17.5975 0.166504 17.5992C0.166504 17.6009 0.166504 17.6026 0.166504 17.6043C0.166504 17.606 0.166504 17.6077 0.166504 17.6094C0.166504 17.6111 0.166504 17.6128 0.166504 17.6145C0.166504 17.6162 0.166504 17.6179 0.166504 17.6196C0.166504 17.6214 0.166504 17.6231 0.166504 17.6248C0.166504 17.6265 0.166504 17.6282 0.166504 17.6299C0.166504 17.6316 0.166504 17.6333 0.166504 17.635C0.166504 17.6367 0.166504 17.6384 0.166504 17.6402C0.166504 17.6419 0.166504 17.6436 0.166504 17.6453C0.166504 17.647 0.166504 17.6487 0.166504 17.6504C0.166504 17.6521 0.166504 17.6538 0.166504 17.6556C0.166504 17.6573 0.166504 17.659 0.166504 17.6607C0.166504 17.6624 0.166504 17.6641 0.166504 17.6658C0.166504 17.6675 0.166504 17.6692 0.166504 17.671C0.166504 17.6727 0.166504 17.6744 0.166504 17.6761C0.166504 17.6778 0.166504 17.6795 0.166504 17.6812C0.166504 17.683 0.166504 17.6847 0.166504 17.6864C0.166504 17.6881 0.166504 17.6898 0.166504 17.6915C0.166504 17.6932 0.166504 17.695 0.166504 17.6967C0.166504 17.6984 0.166504 17.7001 0.166504 17.7018C0.166504 17.7035 0.166504 17.7053 0.166504 17.707C0.166504 17.7087 0.166504 17.7104 0.166504 17.7121C0.166504 17.7138 0.166504 17.7156 0.166504 17.7173C0.166504 17.719 0.166504 17.7207 0.166504 17.7224C0.166504 17.7242 0.166504 17.7259 0.166504 17.7276C0.166504 17.7293 0.166504 17.731 0.166504 17.7328C0.166504 17.7345 0.166504 17.7362 0.166504 17.7379C0.166504 17.7396 0.166504 17.7414 0.166504 17.7431C0.166504 17.7448 0.166504 17.7465 0.166504 17.7482C0.166504 17.75 0.166504 17.7517 0.166504 17.7534C0.166504 17.7551 0.166504 17.7568 0.166504 17.7586C0.166504 17.7603 0.166504 17.762 0.166504 17.7637C0.166504 17.7655 0.166504 17.7672 0.166504 17.7689C0.166504 17.7706 0.166504 17.7724 0.166504 17.7741C0.166504 17.7758 0.166504 17.7775 0.166504 17.7792C0.166504 17.781 0.166504 17.7827 0.166504 17.7844C0.166504 17.7861 0.166504 17.7879 0.166504 17.7896C0.166504 17.7913 0.166504 17.793 0.166504 17.7948C0.166504 17.7965 0.166504 17.7982 0.166504 17.7999C0.166504 17.8017 0.166504 17.8034 0.166504 17.8051C0.166504 17.8069 0.166504 17.8086 0.166504 17.8103C0.166504 17.812 0.166504 17.8138 0.166504 17.8155C0.166504 17.8172 0.166504 17.819 0.166504 17.8207C0.166504 17.8224 0.166504 17.8241 0.166504 17.8259C0.166504 17.8276 0.166504 17.8293 0.166504 17.8311C0.166504 17.8328 0.166504 17.8345 0.166504 17.8362C0.166504 17.838 0.166504 17.8397 0.166504 17.8414C0.166504 17.8432 0.166504 17.8449 0.166504 17.8466C0.166504 17.8484 0.166504 17.8501 0.166504 17.8518C0.166504 17.8535 0.166504 17.8553 0.166504 17.857C0.166504 17.8587 0.166504 17.8605 0.166504 17.8622C0.166504 17.8639 0.166504 17.8657 0.166504 17.8674C0.166504 17.8691 0.166504 17.8709 0.166504 17.8726C0.166504 17.8743 0.166504 17.8761 0.166504 17.8778C0.166504 17.8795 0.166504 17.8813 0.166504 17.883C0.166504 17.8847 0.166504 17.8865 0.166504 17.8882C0.166504 17.89 0.166504 17.8917 0.166504 17.8934C0.166504 17.8952 0.166504 17.8969 0.166504 17.8986C0.166504 17.9004 0.166504 17.9021 0.166504 17.9038C0.166504 17.9056 0.166504 17.9073 0.166504 17.909C0.166504 17.9108 0.166504 17.9125 0.166504 17.9143C0.166504 17.916 0.166504 17.9177 0.166504 17.9195C0.166504 17.9212 0.166504 17.923 0.166504 17.9247C0.166504 17.9264 0.166504 17.9282 0.166504 17.9299C0.166504 17.9316 0.166504 17.9334 0.166504 17.9351C0.166504 17.9369 0.166504 17.9386 0.166504 17.9403C0.166504 17.9421 0.166504 17.9438 0.166504 17.9456C0.166504 17.9473 0.166504 17.949 0.166504 17.9508C0.166504 17.9525 0.166504 17.9543 0.166504 17.956C0.166504 17.9578 0.166504 17.9595 0.166504 17.9612C0.166504 17.963 0.166504 17.9647 0.166504 17.9665C0.166504 17.9682 0.166504 17.9699 0.166504 17.9717C0.166504 17.9734 0.166504 17.9752 0.166504 17.9769C0.166504 17.9787 0.166504 17.9804 0.166504 17.9822C0.166504 17.9839 0.166504 17.9856 0.166504 17.9874C0.166504 17.9891 0.166504 17.9909 0.166504 17.9926C0.166504 17.9944 0.166504 17.9961 0.166504 17.9979C0.166504 17.9996 0.166504 18.0013 0.166504 18.0031C0.166504 18.0048 0.166504 18.0066 0.166504 18.0083C0.166504 18.0101 0.166504 18.0118 0.166504 18.0136C0.166504 18.0153 0.166504 18.0171 0.166504 18.0188C0.166504 18.0206 0.166504 18.0223 0.166504 18.0241C0.166504 18.0258 0.166504 18.0276 0.166504 18.0293C0.166504 18.0311 0.166504 18.0328 0.166504 18.0345C0.166504 18.0363 0.166504 18.038 0.166504 18.0398C0.166504 18.0415 0.166504 18.0433 0.166504 18.045C0.166504 18.0468 0.166504 18.0485 0.166504 18.0503C0.166504 18.052 0.166504 18.0538 0.166504 18.0555C0.166504 18.0573 0.166504 18.059 0.166504 18.0608C0.166504 18.0626 0.166504 18.0643 0.166504 18.0661C0.166504 18.0678 0.166504 18.0696 0.166504 18.0713C0.166504 18.0731 0.166504 18.0748 0.166504 18.0766C0.166504 18.0783 0.166504 18.0801 0.166504 18.0818C0.166504 18.0836 0.166504 18.0853 0.166504 18.0871C0.166504 18.0888 0.166504 18.0906 0.166504 18.0924C0.166504 18.0941 0.166504 18.0959 0.166504 18.0976C0.166504 18.0994 0.166504 18.1011 0.166504 18.1029C0.166504 18.1046 0.166504 18.1064 0.166504 18.1081C0.166504 18.1099 0.166504 18.1117 0.166504 18.1134C0.166504 18.1152 0.166504 18.1169 0.166504 18.1187C0.166504 18.1204 0.166504 18.1222 0.166504 18.124C0.166504 18.1257 0.166504 18.1275 0.166504 18.1292C0.166504 18.131 0.166504 18.1327 0.166504 18.1345C0.166504 18.1363 0.166504 18.138 0.166504 18.1398C0.166504 18.1415 0.166504 18.1433 0.166504 18.1451C0.166504 18.1468 0.166504 18.1486 0.166504 18.1503C0.166504 18.1521 0.166504 18.1539 0.166504 18.1556C0.166504 18.1574 0.166504 18.1591 0.166504 18.1609C0.166504 18.1627 0.166504 18.1644 0.166504 18.1662C0.166504 18.1679 0.166504 18.1697 0.166504 18.1715C0.166504 18.1732 0.166504 18.175 0.166504 18.1767C0.166504 18.1785 0.166504 18.1803 0.166504 18.182C0.166504 18.1838 0.166504 18.1856 0.166504 18.1873C0.166504 18.1891 0.166504 18.1908 0.166504 18.1926C0.166504 18.1944 0.166504 18.1961 0.166504 18.1979C0.166504 18.1997 0.166504 18.2014 0.166504 18.2032C0.166504 18.205 0.166504 18.2067 0.166504 18.2085C0.166504 18.2103 0.166504 18.212 0.166504 18.2138C0.166504 18.2155 0.166504 18.2173 0.166504 18.2191C0.166504 18.2208 0.166504 18.2226 0.166504 18.2244C0.166504 18.2261 0.166504 18.2279 0.166504 18.2297C0.166504 18.2314 0.166504 18.2332 0.166504 18.235C0.166504 18.2367 0.166504 18.2385 0.166504 18.2403C0.166504 18.242 0.166504 18.2438 0.166504 18.2456C0.166504 18.2474 0.166504 18.2491 0.166504 18.2509C0.166504 18.2527 0.166504 18.2544 0.166504 18.2562C0.166504 18.258 0.166504 18.2597 0.166504 18.2615C0.166504 18.2633 0.166504 18.265 0.166504 18.2668C0.166504 18.2686 0.166504 18.2704 0.166504 18.2721C0.166504 18.2739 0.166504 18.2757 0.166504 18.2774C0.166504 18.2792 0.166504 18.281 0.166504 18.2827C0.166504 18.2845 0.166504 18.2863 0.166504 18.2881C0.166504 18.2898 0.166504 18.2916 0.166504 18.2934C0.166504 18.2952 0.166504 18.2969 0.166504 18.2987C0.166504 18.3005 0.166504 18.3022 0.166504 18.304C0.166504 18.3058 0.166504 18.3076 0.166504 18.3093C0.166504 18.3111 0.166504 18.3129 0.166504 18.3147C0.166504 18.3164 0.166504 18.3182 0.166504 18.32C0.166504 18.3218 0.166504 18.3235 0.166504 18.3253C0.166504 18.3271 0.166504 18.3289 0.166504 18.3306C0.166504 18.3324 0.166504 18.3342 0.166504 18.336C0.166504 18.3377 0.166504 18.3395 0.166504 18.3413C0.166504 18.3431 0.166504 18.3448 0.166504 18.3466C0.166504 18.3484 0.166504 18.3502 0.166504 18.3519C0.166504 18.3537 0.166504 18.3555 0.166504 18.3573C0.166504 18.3591 0.166504 18.3608 0.166504 18.3626C0.166504 18.3644 0.166504 18.3662 0.166504 18.3679C0.166504 18.3697 0.166504 18.3715 0.166504 18.3733C0.166504 18.3751 0.166504 18.3768 0.166504 18.3786C0.166504 18.3804 0.166504 18.3822 0.166504 18.384C0.166504 18.3857 0.166504 18.3875 0.166504 18.3893C0.166504 18.3911 0.166504 18.3929 0.166504 18.3946C0.166504 18.3964 0.166504 18.3982 0.166504 18.4C0.166504 18.4018 0.166504 18.4036 0.166504 18.4053C0.166504 18.4071 0.166504 18.4089 0.166504 18.4107C0.166504 18.4125 0.166504 18.4142 0.166504 18.416C0.166504 18.4178 0.166504 18.4196 0.166504 18.4214C0.166504 18.4232 0.166504 18.4249 0.166504 18.4267C0.166504 18.4285 0.166504 18.4303 0.166504 18.4321C0.166504 18.4339 0.166504 18.4356 0.166504 18.4374C0.166504 18.4392 0.166504 18.441 0.166504 18.4428C0.166504 18.4446 0.166504 18.4464 0.166504 18.4481C0.166504 18.4499 0.166504 18.4517 0.166504 18.4535C0.166504 18.4553 0.166504 18.4571 0.166504 18.4589C0.166504 18.4606 0.166504 18.4624 0.166504 18.4642C0.166504 18.466 0.166504 18.4678 0.166504 18.4696C0.166504 18.4714 0.166504 18.4732 0.166504 18.4749C0.166504 18.4767 0.166504 18.4785 0.166504 18.4803C0.166504 18.4821 0.166504 18.4839 0.166504 18.4857C0.166504 18.4875 0.166504 18.4892 0.166504 18.491C0.166504 18.4928 0.166504 18.4946 0.166504 18.4964C0.166504 18.4982 0.166504 18.5 0.166504 18.5018C0.166504 18.5036 0.166504 18.5054 0.166504 18.5071C0.166504 18.5089 0.166504 18.5107 0.166504 18.5125C0.166504 18.5143 0.166504 18.5161 0.166504 18.5179C0.166504 18.5197 0.166504 18.5215 0.166504 18.5233C0.166504 18.525 0.166504 18.5268 0.166504 18.5286C0.166504 18.5304 0.166504 18.5322 0.166504 18.534C0.166504 18.5358 0.166504 18.5376 0.166504 18.5394C0.166504 18.5412 0.166504 18.543 0.166504 18.5448C0.166504 18.5466 0.166504 18.5484 0.166504 18.5501C0.166504 18.5519 0.166504 18.5537 0.166504 18.5555C0.166504 18.5573 0.166504 18.5591 0.166504 18.5609C0.166504 18.5627 0.166504 18.5645 0.166504 18.5663C0.166504 18.5681 0.166504 18.5699 0.166504 18.5717C0.166504 18.5735 0.166504 18.5753 0.166504 18.5771C0.166504 18.5789 0.166504 18.5807 0.166504 18.5825C0.166504 18.5843 0.166504 18.5861 0.166504 18.5878C0.166504 18.5896 0.166504 18.5914 0.166504 18.5932C0.166504 18.595 0.166504 18.5968 0.166504 18.5986C0.166504 18.6004 0.166504 18.6022 0.166504 18.604C0.166504 18.6058 0.166504 18.6076 0.166504 18.6094C0.166504 18.6112 0.166504 18.613 0.166504 18.6148C0.166504 18.6166 0.166504 18.6184 0.166504 18.6202C0.166504 18.622 0.166504 18.6238 0.166504 18.6256C0.166504 18.6274 0.166504 18.6292 0.166504 18.631C0.166504 18.6328 0.166504 18.6346 0.166504 18.6364C0.166504 18.6382 0.166504 18.64 0.166504 18.6418C0.166504 18.6436 0.166504 18.6454 0.166504 18.6472C0.166504 18.649 0.166504 18.6508 0.166504 18.6526C0.166504 18.6544 0.166504 18.6562 0.166504 18.658C0.166504 18.6598 0.166504 18.6616 0.166504 18.6634C0.166504 18.6652 0.166504 18.667 0.166504 18.6688C0.166504 18.6707 0.166504 18.6725 0.166504 18.6743C0.166504 18.6761 0.166504 18.6779 0.166504 18.6797C0.166504 18.6815 0.166504 18.6833 0.166504 18.6851C0.166504 18.6869 0.166504 18.6887 0.166504 18.6905C0.166504 18.6923 0.166504 18.6941 0.166504 18.6959C0.166504 18.6977 0.166504 18.6995 0.166504 18.7013C0.166504 18.7031 0.166504 18.7049 0.166504 18.7067C0.166504 18.7085 0.166504 18.7104 0.166504 18.7122C0.166504 18.714 0.166504 18.7158 0.166504 18.7176C0.166504 18.7194 0.166504 18.7212 0.166504 18.723C0.166504 18.7248 0.166504 18.7266 0.166504 18.7284C0.166504 18.7302 0.166504 18.732 0.166504 18.7339C0.166504 18.7357 0.166504 18.7375 0.166504 18.7393C0.166504 18.7411 0.166504 18.7429 0.166504 18.7447C0.166504 18.7465 0.166504 18.7483 0.166504 18.7501C0.166504 18.7519 0.166504 18.7537 0.166504 18.7556C0.166504 18.7574 0.166504 18.7592 0.166504 18.761C0.166504 18.7628 0.166504 18.7646 0.166504 18.7664C0.166504 18.7682 0.166504 18.77 0.166504 18.7719C0.166504 18.7737 0.166504 18.7755 0.166504 18.7773C0.166504 18.7791 0.166504 18.7809 0.166504 18.7827C0.166504 18.7845 0.166504 18.7863 0.166504 18.7882C0.166504 18.79 0.166504 18.7918 0.166504 18.7936C0.166504 18.7954 0.166504 18.7972 0.166504 18.799C0.166504 18.8008 0.166504 18.8027 0.166504 18.8045C0.166504 18.8063 0.166504 18.8081 0.166504 18.8099C0.166504 18.8117 0.166504 18.8135 0.166504 18.8154C0.166504 18.8172 0.166504 18.819 0.166504 18.8208C0.166504 18.8226 0.166504 18.8244 0.166504 18.8262C0.166504 18.8281 0.166504 18.8299 0.166504 18.8317C0.166504 18.8335 0.166504 18.8353 0.166504 18.8371C0.166504 18.839 0.166504 18.8408 0.166504 18.8426C0.166504 18.8444 0.166504 18.8462 0.166504 18.848C0.166504 18.8498 0.166504 18.8517 0.166504 18.8535C0.166504 18.8553 0.166504 18.8571 0.166504 18.8589C0.166504 18.8608 0.166504 18.8626 0.166504 18.8644C0.166504 18.8662 0.166504 18.868 0.166504 18.8698C0.166504 18.8717 0.166504 18.8735 0.166504 18.8753C0.166504 18.8771 0.166504 18.8789 0.166504 18.8808C0.166504 18.8826 0.166504 18.8844 0.166504 18.8862C0.166504 18.888 0.166504 18.8899 0.166504 18.8917C0.166504 18.8935 0.166504 18.8953 0.166504 18.8971C0.166504 18.899 0.166504 18.9008 0.166504 18.9026C0.166504 18.9044 0.166504 18.9062 0.166504 18.9081C0.166504 18.9099 0.166504 18.9117 0.166504 18.9135C0.166504 18.9153 0.166504 18.9172 0.166504 18.919C0.166504 18.9208 0.166504 18.9226 0.166504 18.9245C0.166504 18.9263 0.166504 18.9281 0.166504 18.9299C0.166504 18.9317 0.166504 18.9336 0.166504 18.9354C0.166504 18.9372 0.166504 18.939 0.166504 18.9409C0.166504 18.9427 0.166504 18.9445 0.166504 18.9463C0.166504 18.9482 0.166504 18.95 0.166504 18.9518C0.166504 18.9536 0.166504 18.9555 0.166504 18.9573C0.166504 18.9591 0.166504 18.9609 0.166504 18.9627C0.166504 18.9646 0.166504 18.9664 0.166504 18.9682C0.166504 18.97 0.166504 18.9719 0.166504 18.9737C0.166504 18.9755 0.166504 18.9774 0.166504 18.9792C0.166504 18.981 0.166504 18.9828 0.166504 18.9847C0.166504 18.9865 0.166504 18.9883 0.166504 18.9901C0.166504 18.992 0.166504 18.9938 0.166504 18.9956C0.166504 18.9974 0.166504 18.9993 0.166504 19.0011C0.166504 19.0029 0.166504 19.0048 0.166504 19.0066C0.166504 19.0084 0.166504 19.0102 0.166504 19.0121C0.166504 19.0139 0.166504 19.0157 0.166504 19.0176C0.166504 19.0194 0.166504 19.0212 0.166504 19.023C0.166504 19.0249 0.166504 19.0267 0.166504 19.0285C0.166504 19.0304 0.166504 19.0322 0.166504 19.034C0.166504 19.0359 0.166504 19.0377 0.166504 19.0395C0.166504 19.0413 0.166504 19.0432 0.166504 19.045C0.166504 19.0468 0.166504 19.0487 0.166504 19.0505C0.166504 19.0523 0.166504 19.0542 0.166504 19.056C0.166504 19.0578 0.166504 19.0597 0.166504 19.0615C0.166504 19.0633 0.166504 19.0652 0.166504 19.067C0.166504 19.0688 0.166504 19.0706 0.166504 19.0725C0.166504 19.0743 0.166504 19.0761 0.166504 19.078C0.166504 19.0798 0.166504 19.0816 0.166504 19.0835C0.166504 19.0853 0.166504 19.0871 0.166504 19.089C0.166504 19.0908 0.166504 19.0926 0.166504 19.0945C0.166504 19.0963 0.166504 19.0982 0.166504 19.1C0.166504 19.1018 0.166504 19.1037 0.166504 19.1055C0.166504 19.1073 0.166504 19.1092 0.166504 19.111C0.166504 19.1128 0.166504 19.1147 0.166504 19.1165C0.166504 19.1183 0.166504 19.1202 0.166504 19.122C0.166504 19.1238 0.166504 19.1257 0.166504 19.1275C0.166504 19.1294 0.166504 19.1312 0.166504 19.133C0.166504 19.1349 0.166504 19.1367 0.166504 19.1385C0.166504 19.1404 0.166504 19.1422 0.166504 19.144C0.166504 19.1459 0.166504 19.1477 0.166504 19.1496C0.166504 19.1514 0.166504 19.1532 0.166504 19.1551C0.166504 19.1569 0.166504 19.1588 0.166504 19.1606C0.166504 19.1624 0.166504 19.1643 0.166504 19.1661C0.166504 19.1679 0.166504 19.1698 0.166504 19.1716C0.166504 19.1735 0.166504 19.1753 0.166504 19.1771C0.166504 19.179 0.166504 19.1808 0.166504 19.1827C0.166504 19.1845 0.166504 19.1863 0.166504 19.1882C0.166504 19.19 0.166504 19.1919 0.166504 19.1937C0.166504 19.1955 0.166504 19.1974 0.166504 19.1992C0.166504 19.2011 0.166504 19.2029 0.166504 19.2048C0.166504 19.2066 0.166504 19.2084 0.166504 19.2103C0.166504 19.2121 0.166504 19.214 0.166504 19.2158C0.166504 19.2176 0.166504 19.2195 0.166504 19.2213C0.166504 19.2232 0.166504 19.225 0.166504 19.2269C0.166504 19.2287 0.166504 19.2305 0.166504 19.2324C0.166504 19.2342 0.166504 19.2361 0.166504 19.2379C0.166504 19.2398 0.166504 19.2416 0.166504 19.2435C0.166504 19.2453 0.166504 19.2471 0.166504 19.249C0.166504 19.2508 0.166504 19.2527 0.166504 19.2545C0.166504 19.2564 0.166504 19.2582 0.166504 19.2601C0.166504 19.2619 0.166504 19.2637 0.166504 19.2656C0.166504 19.2674 0.166504 19.2693 0.166504 19.2711C0.166504 19.273 0.166504 19.2748 0.166504 19.2767C0.166504 19.2785 0.166504 19.2804 0.166504 19.2822C0.166504 19.2841 0.166504 19.2859 0.166504 19.2877C0.166504 19.2896 0.166504 19.2914 0.166504 19.2933C0.166504 19.2951 0.166504 19.297 0.166504 19.2988C0.166504 19.3007 0.166504 19.3025 0.166504 19.3044C0.166504 19.3062 0.166504 19.3081 0.166504 19.3099C0.166504 19.3118 0.166504 19.3136 0.166504 19.3155C0.166504 19.3173 0.166504 19.3192 0.166504 19.321H1.1665ZM4.6665 13.1587H9.99984V12.1587H4.6665V13.1587ZM13.4998 16.658C13.4998 16.6596 13.4998 16.6612 13.4998 16.6628C13.4998 16.6644 13.4998 16.666 13.4998 16.6676C13.4998 16.6692 13.4998 16.6708 13.4998 16.6724C13.4998 16.6739 13.4998 16.6755 13.4998 16.6771C13.4998 16.6787 13.4998 16.6803 13.4998 16.6819C13.4998 16.6835 13.4998 16.6851 13.4998 16.6867C13.4998 16.6883 13.4998 16.6899 13.4998 16.6915C13.4998 16.6931 13.4998 16.6947 13.4998 16.6963C13.4998 16.6979 13.4998 16.6995 13.4998 16.7011C13.4998 16.7027 13.4998 16.7043 13.4998 16.7059C13.4998 16.7075 13.4998 16.7091 13.4998 16.7107C13.4998 16.7123 13.4998 16.7139 13.4998 16.7155C13.4998 16.7171 13.4998 16.7187 13.4998 16.7203C13.4998 16.7219 13.4998 16.7235 13.4998 16.7251C13.4998 16.7267 13.4998 16.7283 13.4998 16.7299C13.4998 16.7315 13.4998 16.7331 13.4998 16.7347C13.4998 16.7363 13.4998 16.7379 13.4998 16.7395C13.4998 16.7411 13.4998 16.7427 13.4998 16.7443C13.4998 16.7459 13.4998 16.7476 13.4998 16.7492C13.4998 16.7508 13.4998 16.7524 13.4998 16.754C13.4998 16.7556 13.4998 16.7572 13.4998 16.7588C13.4998 16.7604 13.4998 16.762 13.4998 16.7636C13.4998 16.7652 13.4998 16.7668 13.4998 16.7684C13.4998 16.77 13.4998 16.7717 13.4998 16.7733C13.4998 16.7749 13.4998 16.7765 13.4998 16.7781C13.4998 16.7797 13.4998 16.7813 13.4998 16.7829C13.4998 16.7845 13.4998 16.7861 13.4998 16.7877C13.4998 16.7894 13.4998 16.791 13.4998 16.7926C13.4998 16.7942 13.4998 16.7958 13.4998 16.7974C13.4998 16.799 13.4998 16.8006 13.4998 16.8022C13.4998 16.8039 13.4998 16.8055 13.4998 16.8071C13.4998 16.8087 13.4998 16.8103 13.4998 16.8119C13.4998 16.8135 13.4998 16.8151 13.4998 16.8168C13.4998 16.8184 13.4998 16.82 13.4998 16.8216C13.4998 16.8232 13.4998 16.8248 13.4998 16.8265C13.4998 16.8281 13.4998 16.8297 13.4998 16.8313C13.4998 16.8329 13.4998 16.8345 13.4998 16.8361C13.4998 16.8378 13.4998 16.8394 13.4998 16.841C13.4998 16.8426 13.4998 16.8442 13.4998 16.8459C13.4998 16.8475 13.4998 16.8491 13.4998 16.8507C13.4998 16.8523 13.4998 16.8539 13.4998 16.8556C13.4998 16.8572 13.4998 16.8588 13.4998 16.8604C13.4998 16.862 13.4998 16.8637 13.4998 16.8653C13.4998 16.8669 13.4998 16.8685 13.4998 16.8701C13.4998 16.8718 13.4998 16.8734 13.4998 16.875C13.4998 16.8766 13.4998 16.8783 13.4998 16.8799C13.4998 16.8815 13.4998 16.8831 13.4998 16.8847C13.4998 16.8864 13.4998 16.888 13.4998 16.8896C13.4998 16.8912 13.4998 16.8929 13.4998 16.8945C13.4998 16.8961 13.4998 16.8977 13.4998 16.8994C13.4998 16.901 13.4998 16.9026 13.4998 16.9042C13.4998 16.9059 13.4998 16.9075 13.4998 16.9091C13.4998 16.9107 13.4998 16.9124 13.4998 16.914C13.4998 16.9156 13.4998 16.9172 13.4998 16.9189C13.4998 16.9205 13.4998 16.9221 13.4998 16.9237C13.4998 16.9254 13.4998 16.927 13.4998 16.9286C13.4998 16.9303 13.4998 16.9319 13.4998 16.9335C13.4998 16.9351 13.4998 16.9368 13.4998 16.9384C13.4998 16.94 13.4998 16.9417 13.4998 16.9433C13.4998 16.9449 13.4998 16.9466 13.4998 16.9482C13.4998 16.9498 13.4998 16.9515 13.4998 16.9531C13.4998 16.9547 13.4998 16.9563 13.4998 16.958C13.4998 16.9596 13.4998 16.9612 13.4998 16.9629C13.4998 16.9645 13.4998 16.9661 13.4998 16.9678C13.4998 16.9694 13.4998 16.971 13.4998 16.9727C13.4998 16.9743 13.4998 16.9759 13.4998 16.9776C13.4998 16.9792 13.4998 16.9808 13.4998 16.9825C13.4998 16.9841 13.4998 16.9858 13.4998 16.9874C13.4998 16.989 13.4998 16.9907 13.4998 16.9923C13.4998 16.9939 13.4998 16.9956 13.4998 16.9972C13.4998 16.9988 13.4998 17.0005 13.4998 17.0021C13.4998 17.0038 13.4998 17.0054 13.4998 17.007C13.4998 17.0087 13.4998 17.0103 13.4998 17.0119C13.4998 17.0136 13.4998 17.0152 13.4998 17.0169C13.4998 17.0185 13.4998 17.0201 13.4998 17.0218C13.4998 17.0234 13.4998 17.0251 13.4998 17.0267C13.4998 17.0283 13.4998 17.03 13.4998 17.0316C13.4998 17.0333 13.4998 17.0349 13.4998 17.0366C13.4998 17.0382 13.4998 17.0398 13.4998 17.0415C13.4998 17.0431 13.4998 17.0448 13.4998 17.0464C13.4998 17.048 13.4998 17.0497 13.4998 17.0513C13.4998 17.053 13.4998 17.0546 13.4998 17.0563C13.4998 17.0579 13.4998 17.0596 13.4998 17.0612C13.4998 17.0628 13.4998 17.0645 13.4998 17.0661C13.4998 17.0678 13.4998 17.0694 13.4998 17.0711C13.4998 17.0727 13.4998 17.0744 13.4998 17.076C13.4998 17.0777 13.4998 17.0793 13.4998 17.081C13.4998 17.0826 13.4998 17.0843 13.4998 17.0859C13.4998 17.0875 13.4998 17.0892 13.4998 17.0908C13.4998 17.0925 13.4998 17.0941 13.4998 17.0958C13.4998 17.0974 13.4998 17.0991 13.4998 17.1007C13.4998 17.1024 13.4998 17.104 13.4998 17.1057C13.4998 17.1073 13.4998 17.109 13.4998 17.1106C13.4998 17.1123 13.4998 17.1139 13.4998 17.1156C13.4998 17.1172 13.4998 17.1189 13.4998 17.1205C13.4998 17.1222 13.4998 17.1239 13.4998 17.1255C13.4998 17.1272 13.4998 17.1288 13.4998 17.1305C13.4998 17.1321 13.4998 17.1338 13.4998 17.1354C13.4998 17.1371 13.4998 17.1387 13.4998 17.1404C13.4998 17.142 13.4998 17.1437 13.4998 17.1453C13.4998 17.147 13.4998 17.1487 13.4998 17.1503C13.4998 17.152 13.4998 17.1536 13.4998 17.1553C13.4998 17.1569 13.4998 17.1586 13.4998 17.1603C13.4998 17.1619 13.4998 17.1636 13.4998 17.1652C13.4998 17.1669 13.4998 17.1685 13.4998 17.1702C13.4998 17.1719 13.4998 17.1735 13.4998 17.1752C13.4998 17.1768 13.4998 17.1785 13.4998 17.1801C13.4998 17.1818 13.4998 17.1835 13.4998 17.1851C13.4998 17.1868 13.4998 17.1884 13.4998 17.1901C13.4998 17.1918 13.4998 17.1934 13.4998 17.1951C13.4998 17.1967 13.4998 17.1984 13.4998 17.2001C13.4998 17.2017 13.4998 17.2034 13.4998 17.2051C13.4998 17.2067 13.4998 17.2084 13.4998 17.21C13.4998 17.2117 13.4998 17.2134 13.4998 17.215C13.4998 17.2167 13.4998 17.2184 13.4998 17.22C13.4998 17.2217 13.4998 17.2234 13.4998 17.225C13.4998 17.2267 13.4998 17.2283 13.4998 17.23C13.4998 17.2317 13.4998 17.2333 13.4998 17.235C13.4998 17.2367 13.4998 17.2383 13.4998 17.24C13.4998 17.2417 13.4998 17.2433 13.4998 17.245C13.4998 17.2467 13.4998 17.2483 13.4998 17.25C13.4998 17.2517 13.4998 17.2533 13.4998 17.255C13.4998 17.2567 13.4998 17.2583 13.4998 17.26C13.4998 17.2617 13.4998 17.2633 13.4998 17.265C13.4998 17.2667 13.4998 17.2684 13.4998 17.27C13.4998 17.2717 13.4998 17.2734 13.4998 17.275C13.4998 17.2767 13.4998 17.2784 13.4998 17.28C13.4998 17.2817 13.4998 17.2834 13.4998 17.2851C13.4998 17.2867 13.4998 17.2884 13.4998 17.2901C13.4998 17.2917 13.4998 17.2934 13.4998 17.2951C13.4998 17.2968 13.4998 17.2984 13.4998 17.3001C13.4998 17.3018 13.4998 17.3035 13.4998 17.3051C13.4998 17.3068 13.4998 17.3085 13.4998 17.3101C13.4998 17.3118 13.4998 17.3135 13.4998 17.3152C13.4998 17.3168 13.4998 17.3185 13.4998 17.3202C13.4998 17.3219 13.4998 17.3235 13.4998 17.3252C13.4998 17.3269 13.4998 17.3286 13.4998 17.3303C13.4998 17.3319 13.4998 17.3336 13.4998 17.3353C13.4998 17.337 13.4998 17.3386 13.4998 17.3403C13.4998 17.342 13.4998 17.3437 13.4998 17.3453C13.4998 17.347 13.4998 17.3487 13.4998 17.3504C13.4998 17.3521 13.4998 17.3537 13.4998 17.3554C13.4998 17.3571 13.4998 17.3588 13.4998 17.3605C13.4998 17.3621 13.4998 17.3638 13.4998 17.3655C13.4998 17.3672 13.4998 17.3689 13.4998 17.3705C13.4998 17.3722 13.4998 17.3739 13.4998 17.3756C13.4998 17.3773 13.4998 17.3789 13.4998 17.3806C13.4998 17.3823 13.4998 17.384 13.4998 17.3857C13.4998 17.3874 13.4998 17.389 13.4998 17.3907C13.4998 17.3924 13.4998 17.3941 13.4998 17.3958C13.4998 17.3975 13.4998 17.3991 13.4998 17.4008C13.4998 17.4025 13.4998 17.4042 13.4998 17.4059C13.4998 17.4076 13.4998 17.4093 13.4998 17.4109C13.4998 17.4126 13.4998 17.4143 13.4998 17.416C13.4998 17.4177 13.4998 17.4194 13.4998 17.4211C13.4998 17.4227 13.4998 17.4244 13.4998 17.4261C13.4998 17.4278 13.4998 17.4295 13.4998 17.4312C13.4998 17.4329 13.4998 17.4346 13.4998 17.4362C13.4998 17.4379 13.4998 17.4396 13.4998 17.4413C13.4998 17.443 13.4998 17.4447 13.4998 17.4464C13.4998 17.4481 13.4998 17.4498 13.4998 17.4514C13.4998 17.4531 13.4998 17.4548 13.4998 17.4565C13.4998 17.4582 13.4998 17.4599 13.4998 17.4616C13.4998 17.4633 13.4998 17.465 13.4998 17.4667C13.4998 17.4684 13.4998 17.47 13.4998 17.4717C13.4998 17.4734 13.4998 17.4751 13.4998 17.4768C13.4998 17.4785 13.4998 17.4802 13.4998 17.4819C13.4998 17.4836 13.4998 17.4853 13.4998 17.487C13.4998 17.4887 13.4998 17.4904 13.4998 17.4921C13.4998 17.4937 13.4998 17.4954 13.4998 17.4971C13.4998 17.4988 13.4998 17.5005 13.4998 17.5022C13.4998 17.5039 13.4998 17.5056 13.4998 17.5073C13.4998 17.509 13.4998 17.5107 13.4998 17.5124C13.4998 17.5141 13.4998 17.5158 13.4998 17.5175C13.4998 17.5192 13.4998 17.5209 13.4998 17.5226C13.4998 17.5243 13.4998 17.526 13.4998 17.5277C13.4998 17.5294 13.4998 17.5311 13.4998 17.5328C13.4998 17.5345 13.4998 17.5362 13.4998 17.5379C13.4998 17.5396 13.4998 17.5413 13.4998 17.543C13.4998 17.5447 13.4998 17.5464 13.4998 17.5481C13.4998 17.5498 13.4998 17.5515 13.4998 17.5532C13.4998 17.5549 13.4998 17.5566 13.4998 17.5583C13.4998 17.56 13.4998 17.5617 13.4998 17.5634C13.4998 17.5651 13.4998 17.5668 13.4998 17.5685C13.4998 17.5702 13.4998 17.5719 13.4998 17.5736C13.4998 17.5753 13.4998 17.577 13.4998 17.5787C13.4998 17.5804 13.4998 17.5821 13.4998 17.5838C13.4998 17.5855 13.4998 17.5872 13.4998 17.5889C13.4998 17.5906 13.4998 17.5923 13.4998 17.594C13.4998 17.5957 13.4998 17.5975 13.4998 17.5992C13.4998 17.6009 13.4998 17.6026 13.4998 17.6043C13.4998 17.606 13.4998 17.6077 13.4998 17.6094C13.4998 17.6111 13.4998 17.6128 13.4998 17.6145C13.4998 17.6162 13.4998 17.6179 13.4998 17.6196C13.4998 17.6214 13.4998 17.6231 13.4998 17.6248C13.4998 17.6265 13.4998 17.6282 13.4998 17.6299C13.4998 17.6316 13.4998 17.6333 13.4998 17.635C13.4998 17.6367 13.4998 17.6384 13.4998 17.6402C13.4998 17.6419 13.4998 17.6436 13.4998 17.6453C13.4998 17.647 13.4998 17.6487 13.4998 17.6504C13.4998 17.6521 13.4998 17.6538 13.4998 17.6556C13.4998 17.6573 13.4998 17.659 13.4998 17.6607C13.4998 17.6624 13.4998 17.6641 13.4998 17.6658C13.4998 17.6675 13.4998 17.6692 13.4998 17.671C13.4998 17.6727 13.4998 17.6744 13.4998 17.6761C13.4998 17.6778 13.4998 17.6795 13.4998 17.6812C13.4998 17.683 13.4998 17.6847 13.4998 17.6864C13.4998 17.6881 13.4998 17.6898 13.4998 17.6915C13.4998 17.6932 13.4998 17.695 13.4998 17.6967C13.4998 17.6984 13.4998 17.7001 13.4998 17.7018C13.4998 17.7035 13.4998 17.7053 13.4998 17.707C13.4998 17.7087 13.4998 17.7104 13.4998 17.7121C13.4998 17.7138 13.4998 17.7156 13.4998 17.7173C13.4998 17.719 13.4998 17.7207 13.4998 17.7224C13.4998 17.7242 13.4998 17.7259 13.4998 17.7276C13.4998 17.7293 13.4998 17.731 13.4998 17.7328C13.4998 17.7345 13.4998 17.7362 13.4998 17.7379C13.4998 17.7396 13.4998 17.7414 13.4998 17.7431C13.4998 17.7448 13.4998 17.7465 13.4998 17.7482C13.4998 17.75 13.4998 17.7517 13.4998 17.7534C13.4998 17.7551 13.4998 17.7568 13.4998 17.7586C13.4998 17.7603 13.4998 17.762 13.4998 17.7637C13.4998 17.7655 13.4998 17.7672 13.4998 17.7689C13.4998 17.7706 13.4998 17.7724 13.4998 17.7741C13.4998 17.7758 13.4998 17.7775 13.4998 17.7792C13.4998 17.781 13.4998 17.7827 13.4998 17.7844C13.4998 17.7861 13.4998 17.7879 13.4998 17.7896C13.4998 17.7913 13.4998 17.793 13.4998 17.7948C13.4998 17.7965 13.4998 17.7982 13.4998 17.7999C13.4998 17.8017 13.4998 17.8034 13.4998 17.8051C13.4998 17.8069 13.4998 17.8086 13.4998 17.8103C13.4998 17.812 13.4998 17.8138 13.4998 17.8155C13.4998 17.8172 13.4998 17.819 13.4998 17.8207C13.4998 17.8224 13.4998 17.8241 13.4998 17.8259C13.4998 17.8276 13.4998 17.8293 13.4998 17.8311C13.4998 17.8328 13.4998 17.8345 13.4998 17.8362C13.4998 17.838 13.4998 17.8397 13.4998 17.8414C13.4998 17.8432 13.4998 17.8449 13.4998 17.8466C13.4998 17.8484 13.4998 17.8501 13.4998 17.8518C13.4998 17.8535 13.4998 17.8553 13.4998 17.857C13.4998 17.8587 13.4998 17.8605 13.4998 17.8622C13.4998 17.8639 13.4998 17.8657 13.4998 17.8674C13.4998 17.8691 13.4998 17.8709 13.4998 17.8726C13.4998 17.8743 13.4998 17.8761 13.4998 17.8778C13.4998 17.8795 13.4998 17.8813 13.4998 17.883C13.4998 17.8847 13.4998 17.8865 13.4998 17.8882C13.4998 17.89 13.4998 17.8917 13.4998 17.8934C13.4998 17.8952 13.4998 17.8969 13.4998 17.8986C13.4998 17.9004 13.4998 17.9021 13.4998 17.9038C13.4998 17.9056 13.4998 17.9073 13.4998 17.909C13.4998 17.9108 13.4998 17.9125 13.4998 17.9143C13.4998 17.916 13.4998 17.9177 13.4998 17.9195C13.4998 17.9212 13.4998 17.923 13.4998 17.9247C13.4998 17.9264 13.4998 17.9282 13.4998 17.9299C13.4998 17.9316 13.4998 17.9334 13.4998 17.9351C13.4998 17.9369 13.4998 17.9386 13.4998 17.9403C13.4998 17.9421 13.4998 17.9438 13.4998 17.9456C13.4998 17.9473 13.4998 17.949 13.4998 17.9508C13.4998 17.9525 13.4998 17.9543 13.4998 17.956C13.4998 17.9578 13.4998 17.9595 13.4998 17.9612C13.4998 17.963 13.4998 17.9647 13.4998 17.9665C13.4998 17.9682 13.4998 17.9699 13.4998 17.9717C13.4998 17.9734 13.4998 17.9752 13.4998 17.9769C13.4998 17.9787 13.4998 17.9804 13.4998 17.9822C13.4998 17.9839 13.4998 17.9856 13.4998 17.9874C13.4998 17.9891 13.4998 17.9909 13.4998 17.9926C13.4998 17.9944 13.4998 17.9961 13.4998 17.9979C13.4998 17.9996 13.4998 18.0013 13.4998 18.0031C13.4998 18.0048 13.4998 18.0066 13.4998 18.0083C13.4998 18.0101 13.4998 18.0118 13.4998 18.0136C13.4998 18.0153 13.4998 18.0171 13.4998 18.0188C13.4998 18.0206 13.4998 18.0223 13.4998 18.0241C13.4998 18.0258 13.4998 18.0276 13.4998 18.0293C13.4998 18.0311 13.4998 18.0328 13.4998 18.0345C13.4998 18.0363 13.4998 18.038 13.4998 18.0398C13.4998 18.0415 13.4998 18.0433 13.4998 18.045C13.4998 18.0468 13.4998 18.0485 13.4998 18.0503C13.4998 18.052 13.4998 18.0538 13.4998 18.0555C13.4998 18.0573 13.4998 18.059 13.4998 18.0608C13.4998 18.0626 13.4998 18.0643 13.4998 18.0661C13.4998 18.0678 13.4998 18.0696 13.4998 18.0713C13.4998 18.0731 13.4998 18.0748 13.4998 18.0766C13.4998 18.0783 13.4998 18.0801 13.4998 18.0818C13.4998 18.0836 13.4998 18.0853 13.4998 18.0871C13.4998 18.0888 13.4998 18.0906 13.4998 18.0924C13.4998 18.0941 13.4998 18.0959 13.4998 18.0976C13.4998 18.0994 13.4998 18.1011 13.4998 18.1029C13.4998 18.1046 13.4998 18.1064 13.4998 18.1081C13.4998 18.1099 13.4998 18.1117 13.4998 18.1134C13.4998 18.1152 13.4998 18.1169 13.4998 18.1187C13.4998 18.1204 13.4998 18.1222 13.4998 18.124C13.4998 18.1257 13.4998 18.1275 13.4998 18.1292C13.4998 18.131 13.4998 18.1327 13.4998 18.1345C13.4998 18.1363 13.4998 18.138 13.4998 18.1398C13.4998 18.1415 13.4998 18.1433 13.4998 18.1451C13.4998 18.1468 13.4998 18.1486 13.4998 18.1503C13.4998 18.1521 13.4998 18.1539 13.4998 18.1556C13.4998 18.1574 13.4998 18.1591 13.4998 18.1609C13.4998 18.1627 13.4998 18.1644 13.4998 18.1662C13.4998 18.1679 13.4998 18.1697 13.4998 18.1715C13.4998 18.1732 13.4998 18.175 13.4998 18.1767C13.4998 18.1785 13.4998 18.1803 13.4998 18.182C13.4998 18.1838 13.4998 18.1856 13.4998 18.1873C13.4998 18.1891 13.4998 18.1908 13.4998 18.1926C13.4998 18.1944 13.4998 18.1961 13.4998 18.1979C13.4998 18.1997 13.4998 18.2014 13.4998 18.2032C13.4998 18.205 13.4998 18.2067 13.4998 18.2085C13.4998 18.2103 13.4998 18.212 13.4998 18.2138C13.4998 18.2155 13.4998 18.2173 13.4998 18.2191C13.4998 18.2208 13.4998 18.2226 13.4998 18.2244C13.4998 18.2261 13.4998 18.2279 13.4998 18.2297C13.4998 18.2314 13.4998 18.2332 13.4998 18.235C13.4998 18.2367 13.4998 18.2385 13.4998 18.2403C13.4998 18.242 13.4998 18.2438 13.4998 18.2456C13.4998 18.2474 13.4998 18.2491 13.4998 18.2509C13.4998 18.2527 13.4998 18.2544 13.4998 18.2562C13.4998 18.258 13.4998 18.2597 13.4998 18.2615C13.4998 18.2633 13.4998 18.265 13.4998 18.2668C13.4998 18.2686 13.4998 18.2704 13.4998 18.2721C13.4998 18.2739 13.4998 18.2757 13.4998 18.2774C13.4998 18.2792 13.4998 18.281 13.4998 18.2827C13.4998 18.2845 13.4998 18.2863 13.4998 18.2881C13.4998 18.2898 13.4998 18.2916 13.4998 18.2934C13.4998 18.2952 13.4998 18.2969 13.4998 18.2987C13.4998 18.3005 13.4998 18.3022 13.4998 18.304C13.4998 18.3058 13.4998 18.3076 13.4998 18.3093C13.4998 18.3111 13.4998 18.3129 13.4998 18.3147C13.4998 18.3164 13.4998 18.3182 13.4998 18.32C13.4998 18.3218 13.4998 18.3235 13.4998 18.3253C13.4998 18.3271 13.4998 18.3289 13.4998 18.3306C13.4998 18.3324 13.4998 18.3342 13.4998 18.336C13.4998 18.3377 13.4998 18.3395 13.4998 18.3413C13.4998 18.3431 13.4998 18.3448 13.4998 18.3466C13.4998 18.3484 13.4998 18.3502 13.4998 18.3519C13.4998 18.3537 13.4998 18.3555 13.4998 18.3573C13.4998 18.3591 13.4998 18.3608 13.4998 18.3626C13.4998 18.3644 13.4998 18.3662 13.4998 18.3679C13.4998 18.3697 13.4998 18.3715 13.4998 18.3733C13.4998 18.3751 13.4998 18.3768 13.4998 18.3786C13.4998 18.3804 13.4998 18.3822 13.4998 18.384C13.4998 18.3857 13.4998 18.3875 13.4998 18.3893C13.4998 18.3911 13.4998 18.3929 13.4998 18.3946C13.4998 18.3964 13.4998 18.3982 13.4998 18.4C13.4998 18.4018 13.4998 18.4036 13.4998 18.4053C13.4998 18.4071 13.4998 18.4089 13.4998 18.4107C13.4998 18.4125 13.4998 18.4142 13.4998 18.416C13.4998 18.4178 13.4998 18.4196 13.4998 18.4214C13.4998 18.4232 13.4998 18.4249 13.4998 18.4267C13.4998 18.4285 13.4998 18.4303 13.4998 18.4321C13.4998 18.4339 13.4998 18.4356 13.4998 18.4374C13.4998 18.4392 13.4998 18.441 13.4998 18.4428C13.4998 18.4446 13.4998 18.4464 13.4998 18.4481C13.4998 18.4499 13.4998 18.4517 13.4998 18.4535C13.4998 18.4553 13.4998 18.4571 13.4998 18.4589C13.4998 18.4606 13.4998 18.4624 13.4998 18.4642C13.4998 18.466 13.4998 18.4678 13.4998 18.4696C13.4998 18.4714 13.4998 18.4732 13.4998 18.4749C13.4998 18.4767 13.4998 18.4785 13.4998 18.4803C13.4998 18.4821 13.4998 18.4839 13.4998 18.4857C13.4998 18.4875 13.4998 18.4892 13.4998 18.491C13.4998 18.4928 13.4998 18.4946 13.4998 18.4964C13.4998 18.4982 13.4998 18.5 13.4998 18.5018C13.4998 18.5036 13.4998 18.5054 13.4998 18.5071C13.4998 18.5089 13.4998 18.5107 13.4998 18.5125C13.4998 18.5143 13.4998 18.5161 13.4998 18.5179C13.4998 18.5197 13.4998 18.5215 13.4998 18.5233C13.4998 18.525 13.4998 18.5268 13.4998 18.5286C13.4998 18.5304 13.4998 18.5322 13.4998 18.534C13.4998 18.5358 13.4998 18.5376 13.4998 18.5394C13.4998 18.5412 13.4998 18.543 13.4998 18.5448C13.4998 18.5466 13.4998 18.5484 13.4998 18.5501C13.4998 18.5519 13.4998 18.5537 13.4998 18.5555C13.4998 18.5573 13.4998 18.5591 13.4998 18.5609C13.4998 18.5627 13.4998 18.5645 13.4998 18.5663C13.4998 18.5681 13.4998 18.5699 13.4998 18.5717C13.4998 18.5735 13.4998 18.5753 13.4998 18.5771C13.4998 18.5789 13.4998 18.5807 13.4998 18.5825C13.4998 18.5843 13.4998 18.5861 13.4998 18.5878C13.4998 18.5896 13.4998 18.5914 13.4998 18.5932C13.4998 18.595 13.4998 18.5968 13.4998 18.5986C13.4998 18.6004 13.4998 18.6022 13.4998 18.604C13.4998 18.6058 13.4998 18.6076 13.4998 18.6094C13.4998 18.6112 13.4998 18.613 13.4998 18.6148C13.4998 18.6166 13.4998 18.6184 13.4998 18.6202C13.4998 18.622 13.4998 18.6238 13.4998 18.6256C13.4998 18.6274 13.4998 18.6292 13.4998 18.631C13.4998 18.6328 13.4998 18.6346 13.4998 18.6364C13.4998 18.6382 13.4998 18.64 13.4998 18.6418C13.4998 18.6436 13.4998 18.6454 13.4998 18.6472C13.4998 18.649 13.4998 18.6508 13.4998 18.6526C13.4998 18.6544 13.4998 18.6562 13.4998 18.658C13.4998 18.6598 13.4998 18.6616 13.4998 18.6634C13.4998 18.6652 13.4998 18.667 13.4998 18.6688C13.4998 18.6707 13.4998 18.6725 13.4998 18.6743C13.4998 18.6761 13.4998 18.6779 13.4998 18.6797C13.4998 18.6815 13.4998 18.6833 13.4998 18.6851C13.4998 18.6869 13.4998 18.6887 13.4998 18.6905C13.4998 18.6923 13.4998 18.6941 13.4998 18.6959C13.4998 18.6977 13.4998 18.6995 13.4998 18.7013C13.4998 18.7031 13.4998 18.7049 13.4998 18.7067C13.4998 18.7085 13.4998 18.7104 13.4998 18.7122C13.4998 18.714 13.4998 18.7158 13.4998 18.7176C13.4998 18.7194 13.4998 18.7212 13.4998 18.723C13.4998 18.7248 13.4998 18.7266 13.4998 18.7284C13.4998 18.7302 13.4998 18.732 13.4998 18.7339C13.4998 18.7357 13.4998 18.7375 13.4998 18.7393C13.4998 18.7411 13.4998 18.7429 13.4998 18.7447C13.4998 18.7465 13.4998 18.7483 13.4998 18.7501C13.4998 18.7519 13.4998 18.7537 13.4998 18.7556C13.4998 18.7574 13.4998 18.7592 13.4998 18.761C13.4998 18.7628 13.4998 18.7646 13.4998 18.7664C13.4998 18.7682 13.4998 18.77 13.4998 18.7719C13.4998 18.7737 13.4998 18.7755 13.4998 18.7773C13.4998 18.7791 13.4998 18.7809 13.4998 18.7827C13.4998 18.7845 13.4998 18.7863 13.4998 18.7882C13.4998 18.79 13.4998 18.7918 13.4998 18.7936C13.4998 18.7954 13.4998 18.7972 13.4998 18.799C13.4998 18.8008 13.4998 18.8027 13.4998 18.8045C13.4998 18.8063 13.4998 18.8081 13.4998 18.8099C13.4998 18.8117 13.4998 18.8135 13.4998 18.8154C13.4998 18.8172 13.4998 18.819 13.4998 18.8208C13.4998 18.8226 13.4998 18.8244 13.4998 18.8262C13.4998 18.8281 13.4998 18.8299 13.4998 18.8317C13.4998 18.8335 13.4998 18.8353 13.4998 18.8371C13.4998 18.839 13.4998 18.8408 13.4998 18.8426C13.4998 18.8444 13.4998 18.8462 13.4998 18.848C13.4998 18.8498 13.4998 18.8517 13.4998 18.8535C13.4998 18.8553 13.4998 18.8571 13.4998 18.8589C13.4998 18.8608 13.4998 18.8626 13.4998 18.8644C13.4998 18.8662 13.4998 18.868 13.4998 18.8698C13.4998 18.8717 13.4998 18.8735 13.4998 18.8753C13.4998 18.8771 13.4998 18.8789 13.4998 18.8808C13.4998 18.8826 13.4998 18.8844 13.4998 18.8862C13.4998 18.888 13.4998 18.8899 13.4998 18.8917C13.4998 18.8935 13.4998 18.8953 13.4998 18.8971C13.4998 18.899 13.4998 18.9008 13.4998 18.9026C13.4998 18.9044 13.4998 18.9062 13.4998 18.9081C13.4998 18.9099 13.4998 18.9117 13.4998 18.9135C13.4998 18.9153 13.4998 18.9172 13.4998 18.919C13.4998 18.9208 13.4998 18.9226 13.4998 18.9245C13.4998 18.9263 13.4998 18.9281 13.4998 18.9299C13.4998 18.9317 13.4998 18.9336 13.4998 18.9354C13.4998 18.9372 13.4998 18.939 13.4998 18.9409C13.4998 18.9427 13.4998 18.9445 13.4998 18.9463C13.4998 18.9482 13.4998 18.95 13.4998 18.9518C13.4998 18.9536 13.4998 18.9555 13.4998 18.9573C13.4998 18.9591 13.4998 18.9609 13.4998 18.9627C13.4998 18.9646 13.4998 18.9664 13.4998 18.9682C13.4998 18.97 13.4998 18.9719 13.4998 18.9737C13.4998 18.9755 13.4998 18.9774 13.4998 18.9792C13.4998 18.981 13.4998 18.9828 13.4998 18.9847C13.4998 18.9865 13.4998 18.9883 13.4998 18.9901C13.4998 18.992 13.4998 18.9938 13.4998 18.9956C13.4998 18.9974 13.4998 18.9993 13.4998 19.0011C13.4998 19.0029 13.4998 19.0048 13.4998 19.0066C13.4998 19.0084 13.4998 19.0102 13.4998 19.0121C13.4998 19.0139 13.4998 19.0157 13.4998 19.0176C13.4998 19.0194 13.4998 19.0212 13.4998 19.023C13.4998 19.0249 13.4998 19.0267 13.4998 19.0285C13.4998 19.0304 13.4998 19.0322 13.4998 19.034C13.4998 19.0359 13.4998 19.0377 13.4998 19.0395C13.4998 19.0413 13.4998 19.0432 13.4998 19.045C13.4998 19.0468 13.4998 19.0487 13.4998 19.0505C13.4998 19.0523 13.4998 19.0542 13.4998 19.056C13.4998 19.0578 13.4998 19.0597 13.4998 19.0615C13.4998 19.0633 13.4998 19.0652 13.4998 19.067C13.4998 19.0688 13.4998 19.0706 13.4998 19.0725C13.4998 19.0743 13.4998 19.0761 13.4998 19.078C13.4998 19.0798 13.4998 19.0816 13.4998 19.0835C13.4998 19.0853 13.4998 19.0871 13.4998 19.089C13.4998 19.0908 13.4998 19.0926 13.4998 19.0945C13.4998 19.0963 13.4998 19.0982 13.4998 19.1C13.4998 19.1018 13.4998 19.1037 13.4998 19.1055C13.4998 19.1073 13.4998 19.1092 13.4998 19.111C13.4998 19.1128 13.4998 19.1147 13.4998 19.1165C13.4998 19.1183 13.4998 19.1202 13.4998 19.122C13.4998 19.1238 13.4998 19.1257 13.4998 19.1275C13.4998 19.1294 13.4998 19.1312 13.4998 19.133C13.4998 19.1349 13.4998 19.1367 13.4998 19.1385C13.4998 19.1404 13.4998 19.1422 13.4998 19.144C13.4998 19.1459 13.4998 19.1477 13.4998 19.1496C13.4998 19.1514 13.4998 19.1532 13.4998 19.1551C13.4998 19.1569 13.4998 19.1588 13.4998 19.1606C13.4998 19.1624 13.4998 19.1643 13.4998 19.1661C13.4998 19.1679 13.4998 19.1698 13.4998 19.1716C13.4998 19.1735 13.4998 19.1753 13.4998 19.1771C13.4998 19.179 13.4998 19.1808 13.4998 19.1827C13.4998 19.1845 13.4998 19.1863 13.4998 19.1882C13.4998 19.19 13.4998 19.1919 13.4998 19.1937C13.4998 19.1955 13.4998 19.1974 13.4998 19.1992C13.4998 19.2011 13.4998 19.2029 13.4998 19.2048C13.4998 19.2066 13.4998 19.2084 13.4998 19.2103C13.4998 19.2121 13.4998 19.214 13.4998 19.2158C13.4998 19.2176 13.4998 19.2195 13.4998 19.2213C13.4998 19.2232 13.4998 19.225 13.4998 19.2269C13.4998 19.2287 13.4998 19.2305 13.4998 19.2324C13.4998 19.2342 13.4998 19.2361 13.4998 19.2379C13.4998 19.2398 13.4998 19.2416 13.4998 19.2435C13.4998 19.2453 13.4998 19.2471 13.4998 19.249C13.4998 19.2508 13.4998 19.2527 13.4998 19.2545C13.4998 19.2564 13.4998 19.2582 13.4998 19.2601C13.4998 19.2619 13.4998 19.2637 13.4998 19.2656C13.4998 19.2674 13.4998 19.2693 13.4998 19.2711C13.4998 19.273 13.4998 19.2748 13.4998 19.2767C13.4998 19.2785 13.4998 19.2804 13.4998 19.2822C13.4998 19.2841 13.4998 19.2859 13.4998 19.2877C13.4998 19.2896 13.4998 19.2914 13.4998 19.2933C13.4998 19.2951 13.4998 19.297 13.4998 19.2988C13.4998 19.3007 13.4998 19.3025 13.4998 19.3044C13.4998 19.3062 13.4998 19.3081 13.4998 19.3099C13.4998 19.3118 13.4998 19.3136 13.4998 19.3155C13.4998 19.3173 13.4998 19.3192 13.4998 19.321H14.4998C14.4998 19.3192 14.4998 19.3173 14.4998 19.3155C14.4998 19.3136 14.4998 19.3118 14.4998 19.3099C14.4998 19.3081 14.4998 19.3062 14.4998 19.3044C14.4998 19.3025 14.4998 19.3007 14.4998 19.2988C14.4998 19.297 14.4998 19.2951 14.4998 19.2933C14.4998 19.2914 14.4998 19.2896 14.4998 19.2877C14.4998 19.2859 14.4998 19.2841 14.4998 19.2822C14.4998 19.2804 14.4998 19.2785 14.4998 19.2767C14.4998 19.2748 14.4998 19.273 14.4998 19.2711C14.4998 19.2693 14.4998 19.2674 14.4998 19.2656C14.4998 19.2637 14.4998 19.2619 14.4998 19.2601C14.4998 19.2582 14.4998 19.2564 14.4998 19.2545C14.4998 19.2527 14.4998 19.2508 14.4998 19.249C14.4998 19.2471 14.4998 19.2453 14.4998 19.2435C14.4998 19.2416 14.4998 19.2398 14.4998 19.2379C14.4998 19.2361 14.4998 19.2342 14.4998 19.2324C14.4998 19.2305 14.4998 19.2287 14.4998 19.2269C14.4998 19.225 14.4998 19.2232 14.4998 19.2213C14.4998 19.2195 14.4998 19.2176 14.4998 19.2158C14.4998 19.214 14.4998 19.2121 14.4998 19.2103C14.4998 19.2084 14.4998 19.2066 14.4998 19.2048C14.4998 19.2029 14.4998 19.2011 14.4998 19.1992C14.4998 19.1974 14.4998 19.1955 14.4998 19.1937C14.4998 19.1919 14.4998 19.19 14.4998 19.1882C14.4998 19.1863 14.4998 19.1845 14.4998 19.1827C14.4998 19.1808 14.4998 19.179 14.4998 19.1771C14.4998 19.1753 14.4998 19.1735 14.4998 19.1716C14.4998 19.1698 14.4998 19.1679 14.4998 19.1661C14.4998 19.1643 14.4998 19.1624 14.4998 19.1606C14.4998 19.1588 14.4998 19.1569 14.4998 19.1551C14.4998 19.1532 14.4998 19.1514 14.4998 19.1496C14.4998 19.1477 14.4998 19.1459 14.4998 19.144C14.4998 19.1422 14.4998 19.1404 14.4998 19.1385C14.4998 19.1367 14.4998 19.1349 14.4998 19.133C14.4998 19.1312 14.4998 19.1294 14.4998 19.1275C14.4998 19.1257 14.4998 19.1238 14.4998 19.122C14.4998 19.1202 14.4998 19.1183 14.4998 19.1165C14.4998 19.1147 14.4998 19.1128 14.4998 19.111C14.4998 19.1092 14.4998 19.1073 14.4998 19.1055C14.4998 19.1037 14.4998 19.1018 14.4998 19.1C14.4998 19.0982 14.4998 19.0963 14.4998 19.0945C14.4998 19.0926 14.4998 19.0908 14.4998 19.089C14.4998 19.0871 14.4998 19.0853 14.4998 19.0835C14.4998 19.0816 14.4998 19.0798 14.4998 19.078C14.4998 19.0761 14.4998 19.0743 14.4998 19.0725C14.4998 19.0706 14.4998 19.0688 14.4998 19.067C14.4998 19.0652 14.4998 19.0633 14.4998 19.0615C14.4998 19.0597 14.4998 19.0578 14.4998 19.056C14.4998 19.0542 14.4998 19.0523 14.4998 19.0505C14.4998 19.0487 14.4998 19.0468 14.4998 19.045C14.4998 19.0432 14.4998 19.0413 14.4998 19.0395C14.4998 19.0377 14.4998 19.0359 14.4998 19.034C14.4998 19.0322 14.4998 19.0304 14.4998 19.0285C14.4998 19.0267 14.4998 19.0249 14.4998 19.023C14.4998 19.0212 14.4998 19.0194 14.4998 19.0176C14.4998 19.0157 14.4998 19.0139 14.4998 19.0121C14.4998 19.0102 14.4998 19.0084 14.4998 19.0066C14.4998 19.0048 14.4998 19.0029 14.4998 19.0011C14.4998 18.9993 14.4998 18.9974 14.4998 18.9956C14.4998 18.9938 14.4998 18.992 14.4998 18.9901C14.4998 18.9883 14.4998 18.9865 14.4998 18.9847C14.4998 18.9828 14.4998 18.981 14.4998 18.9792C14.4998 18.9774 14.4998 18.9755 14.4998 18.9737C14.4998 18.9719 14.4998 18.97 14.4998 18.9682C14.4998 18.9664 14.4998 18.9646 14.4998 18.9627C14.4998 18.9609 14.4998 18.9591 14.4998 18.9573C14.4998 18.9555 14.4998 18.9536 14.4998 18.9518C14.4998 18.95 14.4998 18.9482 14.4998 18.9463C14.4998 18.9445 14.4998 18.9427 14.4998 18.9409C14.4998 18.939 14.4998 18.9372 14.4998 18.9354C14.4998 18.9336 14.4998 18.9317 14.4998 18.9299C14.4998 18.9281 14.4998 18.9263 14.4998 18.9245C14.4998 18.9226 14.4998 18.9208 14.4998 18.919C14.4998 18.9172 14.4998 18.9153 14.4998 18.9135C14.4998 18.9117 14.4998 18.9099 14.4998 18.9081C14.4998 18.9062 14.4998 18.9044 14.4998 18.9026C14.4998 18.9008 14.4998 18.899 14.4998 18.8971C14.4998 18.8953 14.4998 18.8935 14.4998 18.8917C14.4998 18.8899 14.4998 18.888 14.4998 18.8862C14.4998 18.8844 14.4998 18.8826 14.4998 18.8808C14.4998 18.8789 14.4998 18.8771 14.4998 18.8753C14.4998 18.8735 14.4998 18.8717 14.4998 18.8698C14.4998 18.868 14.4998 18.8662 14.4998 18.8644C14.4998 18.8626 14.4998 18.8608 14.4998 18.8589C14.4998 18.8571 14.4998 18.8553 14.4998 18.8535C14.4998 18.8517 14.4998 18.8498 14.4998 18.848C14.4998 18.8462 14.4998 18.8444 14.4998 18.8426C14.4998 18.8408 14.4998 18.839 14.4998 18.8371C14.4998 18.8353 14.4998 18.8335 14.4998 18.8317C14.4998 18.8299 14.4998 18.8281 14.4998 18.8262C14.4998 18.8244 14.4998 18.8226 14.4998 18.8208C14.4998 18.819 14.4998 18.8172 14.4998 18.8154C14.4998 18.8135 14.4998 18.8117 14.4998 18.8099C14.4998 18.8081 14.4998 18.8063 14.4998 18.8045C14.4998 18.8027 14.4998 18.8008 14.4998 18.799C14.4998 18.7972 14.4998 18.7954 14.4998 18.7936C14.4998 18.7918 14.4998 18.79 14.4998 18.7882C14.4998 18.7863 14.4998 18.7845 14.4998 18.7827C14.4998 18.7809 14.4998 18.7791 14.4998 18.7773C14.4998 18.7755 14.4998 18.7737 14.4998 18.7719C14.4998 18.77 14.4998 18.7682 14.4998 18.7664C14.4998 18.7646 14.4998 18.7628 14.4998 18.761C14.4998 18.7592 14.4998 18.7574 14.4998 18.7556C14.4998 18.7537 14.4998 18.7519 14.4998 18.7501C14.4998 18.7483 14.4998 18.7465 14.4998 18.7447C14.4998 18.7429 14.4998 18.7411 14.4998 18.7393C14.4998 18.7375 14.4998 18.7357 14.4998 18.7339C14.4998 18.732 14.4998 18.7302 14.4998 18.7284C14.4998 18.7266 14.4998 18.7248 14.4998 18.723C14.4998 18.7212 14.4998 18.7194 14.4998 18.7176C14.4998 18.7158 14.4998 18.714 14.4998 18.7122C14.4998 18.7104 14.4998 18.7085 14.4998 18.7067C14.4998 18.7049 14.4998 18.7031 14.4998 18.7013C14.4998 18.6995 14.4998 18.6977 14.4998 18.6959C14.4998 18.6941 14.4998 18.6923 14.4998 18.6905C14.4998 18.6887 14.4998 18.6869 14.4998 18.6851C14.4998 18.6833 14.4998 18.6815 14.4998 18.6797C14.4998 18.6779 14.4998 18.6761 14.4998 18.6743C14.4998 18.6725 14.4998 18.6707 14.4998 18.6688C14.4998 18.667 14.4998 18.6652 14.4998 18.6634C14.4998 18.6616 14.4998 18.6598 14.4998 18.658C14.4998 18.6562 14.4998 18.6544 14.4998 18.6526C14.4998 18.6508 14.4998 18.649 14.4998 18.6472C14.4998 18.6454 14.4998 18.6436 14.4998 18.6418C14.4998 18.64 14.4998 18.6382 14.4998 18.6364C14.4998 18.6346 14.4998 18.6328 14.4998 18.631C14.4998 18.6292 14.4998 18.6274 14.4998 18.6256C14.4998 18.6238 14.4998 18.622 14.4998 18.6202C14.4998 18.6184 14.4998 18.6166 14.4998 18.6148C14.4998 18.613 14.4998 18.6112 14.4998 18.6094C14.4998 18.6076 14.4998 18.6058 14.4998 18.604C14.4998 18.6022 14.4998 18.6004 14.4998 18.5986C14.4998 18.5968 14.4998 18.595 14.4998 18.5932C14.4998 18.5914 14.4998 18.5896 14.4998 18.5878C14.4998 18.5861 14.4998 18.5843 14.4998 18.5825C14.4998 18.5807 14.4998 18.5789 14.4998 18.5771C14.4998 18.5753 14.4998 18.5735 14.4998 18.5717C14.4998 18.5699 14.4998 18.5681 14.4998 18.5663C14.4998 18.5645 14.4998 18.5627 14.4998 18.5609C14.4998 18.5591 14.4998 18.5573 14.4998 18.5555C14.4998 18.5537 14.4998 18.5519 14.4998 18.5501C14.4998 18.5484 14.4998 18.5466 14.4998 18.5448C14.4998 18.543 14.4998 18.5412 14.4998 18.5394C14.4998 18.5376 14.4998 18.5358 14.4998 18.534C14.4998 18.5322 14.4998 18.5304 14.4998 18.5286C14.4998 18.5268 14.4998 18.525 14.4998 18.5233C14.4998 18.5215 14.4998 18.5197 14.4998 18.5179C14.4998 18.5161 14.4998 18.5143 14.4998 18.5125C14.4998 18.5107 14.4998 18.5089 14.4998 18.5071C14.4998 18.5054 14.4998 18.5036 14.4998 18.5018C14.4998 18.5 14.4998 18.4982 14.4998 18.4964C14.4998 18.4946 14.4998 18.4928 14.4998 18.491C14.4998 18.4892 14.4998 18.4875 14.4998 18.4857C14.4998 18.4839 14.4998 18.4821 14.4998 18.4803C14.4998 18.4785 14.4998 18.4767 14.4998 18.4749C14.4998 18.4732 14.4998 18.4714 14.4998 18.4696C14.4998 18.4678 14.4998 18.466 14.4998 18.4642C14.4998 18.4624 14.4998 18.4606 14.4998 18.4589C14.4998 18.4571 14.4998 18.4553 14.4998 18.4535C14.4998 18.4517 14.4998 18.4499 14.4998 18.4481C14.4998 18.4464 14.4998 18.4446 14.4998 18.4428C14.4998 18.441 14.4998 18.4392 14.4998 18.4374C14.4998 18.4356 14.4998 18.4339 14.4998 18.4321C14.4998 18.4303 14.4998 18.4285 14.4998 18.4267C14.4998 18.4249 14.4998 18.4232 14.4998 18.4214C14.4998 18.4196 14.4998 18.4178 14.4998 18.416C14.4998 18.4142 14.4998 18.4125 14.4998 18.4107C14.4998 18.4089 14.4998 18.4071 14.4998 18.4053C14.4998 18.4036 14.4998 18.4018 14.4998 18.4C14.4998 18.3982 14.4998 18.3964 14.4998 18.3946C14.4998 18.3929 14.4998 18.3911 14.4998 18.3893C14.4998 18.3875 14.4998 18.3857 14.4998 18.384C14.4998 18.3822 14.4998 18.3804 14.4998 18.3786C14.4998 18.3768 14.4998 18.3751 14.4998 18.3733C14.4998 18.3715 14.4998 18.3697 14.4998 18.3679C14.4998 18.3662 14.4998 18.3644 14.4998 18.3626C14.4998 18.3608 14.4998 18.3591 14.4998 18.3573C14.4998 18.3555 14.4998 18.3537 14.4998 18.3519C14.4998 18.3502 14.4998 18.3484 14.4998 18.3466C14.4998 18.3448 14.4998 18.3431 14.4998 18.3413C14.4998 18.3395 14.4998 18.3377 14.4998 18.336C14.4998 18.3342 14.4998 18.3324 14.4998 18.3306C14.4998 18.3289 14.4998 18.3271 14.4998 18.3253C14.4998 18.3235 14.4998 18.3218 14.4998 18.32C14.4998 18.3182 14.4998 18.3164 14.4998 18.3147C14.4998 18.3129 14.4998 18.3111 14.4998 18.3093C14.4998 18.3076 14.4998 18.3058 14.4998 18.304C14.4998 18.3022 14.4998 18.3005 14.4998 18.2987C14.4998 18.2969 14.4998 18.2952 14.4998 18.2934C14.4998 18.2916 14.4998 18.2898 14.4998 18.2881C14.4998 18.2863 14.4998 18.2845 14.4998 18.2827C14.4998 18.281 14.4998 18.2792 14.4998 18.2774C14.4998 18.2757 14.4998 18.2739 14.4998 18.2721C14.4998 18.2704 14.4998 18.2686 14.4998 18.2668C14.4998 18.265 14.4998 18.2633 14.4998 18.2615C14.4998 18.2597 14.4998 18.258 14.4998 18.2562C14.4998 18.2544 14.4998 18.2527 14.4998 18.2509C14.4998 18.2491 14.4998 18.2474 14.4998 18.2456C14.4998 18.2438 14.4998 18.242 14.4998 18.2403C14.4998 18.2385 14.4998 18.2367 14.4998 18.235C14.4998 18.2332 14.4998 18.2314 14.4998 18.2297C14.4998 18.2279 14.4998 18.2261 14.4998 18.2244C14.4998 18.2226 14.4998 18.2208 14.4998 18.2191C14.4998 18.2173 14.4998 18.2155 14.4998 18.2138C14.4998 18.212 14.4998 18.2103 14.4998 18.2085C14.4998 18.2067 14.4998 18.205 14.4998 18.2032C14.4998 18.2014 14.4998 18.1997 14.4998 18.1979C14.4998 18.1961 14.4998 18.1944 14.4998 18.1926C14.4998 18.1908 14.4998 18.1891 14.4998 18.1873C14.4998 18.1856 14.4998 18.1838 14.4998 18.182C14.4998 18.1803 14.4998 18.1785 14.4998 18.1767C14.4998 18.175 14.4998 18.1732 14.4998 18.1715C14.4998 18.1697 14.4998 18.1679 14.4998 18.1662C14.4998 18.1644 14.4998 18.1627 14.4998 18.1609C14.4998 18.1591 14.4998 18.1574 14.4998 18.1556C14.4998 18.1539 14.4998 18.1521 14.4998 18.1503C14.4998 18.1486 14.4998 18.1468 14.4998 18.1451C14.4998 18.1433 14.4998 18.1415 14.4998 18.1398C14.4998 18.138 14.4998 18.1363 14.4998 18.1345C14.4998 18.1327 14.4998 18.131 14.4998 18.1292C14.4998 18.1275 14.4998 18.1257 14.4998 18.124C14.4998 18.1222 14.4998 18.1204 14.4998 18.1187C14.4998 18.1169 14.4998 18.1152 14.4998 18.1134C14.4998 18.1117 14.4998 18.1099 14.4998 18.1081C14.4998 18.1064 14.4998 18.1046 14.4998 18.1029C14.4998 18.1011 14.4998 18.0994 14.4998 18.0976C14.4998 18.0959 14.4998 18.0941 14.4998 18.0924C14.4998 18.0906 14.4998 18.0888 14.4998 18.0871C14.4998 18.0853 14.4998 18.0836 14.4998 18.0818C14.4998 18.0801 14.4998 18.0783 14.4998 18.0766C14.4998 18.0748 14.4998 18.0731 14.4998 18.0713C14.4998 18.0696 14.4998 18.0678 14.4998 18.0661C14.4998 18.0643 14.4998 18.0626 14.4998 18.0608C14.4998 18.059 14.4998 18.0573 14.4998 18.0555C14.4998 18.0538 14.4998 18.052 14.4998 18.0503C14.4998 18.0485 14.4998 18.0468 14.4998 18.045C14.4998 18.0433 14.4998 18.0415 14.4998 18.0398C14.4998 18.038 14.4998 18.0363 14.4998 18.0345C14.4998 18.0328 14.4998 18.0311 14.4998 18.0293C14.4998 18.0276 14.4998 18.0258 14.4998 18.0241C14.4998 18.0223 14.4998 18.0206 14.4998 18.0188C14.4998 18.0171 14.4998 18.0153 14.4998 18.0136C14.4998 18.0118 14.4998 18.0101 14.4998 18.0083C14.4998 18.0066 14.4998 18.0048 14.4998 18.0031C14.4998 18.0013 14.4998 17.9996 14.4998 17.9979C14.4998 17.9961 14.4998 17.9944 14.4998 17.9926C14.4998 17.9909 14.4998 17.9891 14.4998 17.9874C14.4998 17.9856 14.4998 17.9839 14.4998 17.9822C14.4998 17.9804 14.4998 17.9787 14.4998 17.9769C14.4998 17.9752 14.4998 17.9734 14.4998 17.9717C14.4998 17.9699 14.4998 17.9682 14.4998 17.9665C14.4998 17.9647 14.4998 17.963 14.4998 17.9612C14.4998 17.9595 14.4998 17.9578 14.4998 17.956C14.4998 17.9543 14.4998 17.9525 14.4998 17.9508C14.4998 17.949 14.4998 17.9473 14.4998 17.9456C14.4998 17.9438 14.4998 17.9421 14.4998 17.9403C14.4998 17.9386 14.4998 17.9369 14.4998 17.9351C14.4998 17.9334 14.4998 17.9316 14.4998 17.9299C14.4998 17.9282 14.4998 17.9264 14.4998 17.9247C14.4998 17.923 14.4998 17.9212 14.4998 17.9195C14.4998 17.9177 14.4998 17.916 14.4998 17.9143C14.4998 17.9125 14.4998 17.9108 14.4998 17.909C14.4998 17.9073 14.4998 17.9056 14.4998 17.9038C14.4998 17.9021 14.4998 17.9004 14.4998 17.8986C14.4998 17.8969 14.4998 17.8952 14.4998 17.8934C14.4998 17.8917 14.4998 17.89 14.4998 17.8882C14.4998 17.8865 14.4998 17.8847 14.4998 17.883C14.4998 17.8813 14.4998 17.8795 14.4998 17.8778C14.4998 17.8761 14.4998 17.8743 14.4998 17.8726C14.4998 17.8709 14.4998 17.8691 14.4998 17.8674C14.4998 17.8657 14.4998 17.8639 14.4998 17.8622C14.4998 17.8605 14.4998 17.8587 14.4998 17.857C14.4998 17.8553 14.4998 17.8535 14.4998 17.8518C14.4998 17.8501 14.4998 17.8484 14.4998 17.8466C14.4998 17.8449 14.4998 17.8432 14.4998 17.8414C14.4998 17.8397 14.4998 17.838 14.4998 17.8362C14.4998 17.8345 14.4998 17.8328 14.4998 17.8311C14.4998 17.8293 14.4998 17.8276 14.4998 17.8259C14.4998 17.8241 14.4998 17.8224 14.4998 17.8207C14.4998 17.819 14.4998 17.8172 14.4998 17.8155C14.4998 17.8138 14.4998 17.812 14.4998 17.8103C14.4998 17.8086 14.4998 17.8069 14.4998 17.8051C14.4998 17.8034 14.4998 17.8017 14.4998 17.7999C14.4998 17.7982 14.4998 17.7965 14.4998 17.7948C14.4998 17.793 14.4998 17.7913 14.4998 17.7896C14.4998 17.7879 14.4998 17.7861 14.4998 17.7844C14.4998 17.7827 14.4998 17.781 14.4998 17.7792C14.4998 17.7775 14.4998 17.7758 14.4998 17.7741C14.4998 17.7724 14.4998 17.7706 14.4998 17.7689C14.4998 17.7672 14.4998 17.7655 14.4998 17.7637C14.4998 17.762 14.4998 17.7603 14.4998 17.7586C14.4998 17.7568 14.4998 17.7551 14.4998 17.7534C14.4998 17.7517 14.4998 17.75 14.4998 17.7482C14.4998 17.7465 14.4998 17.7448 14.4998 17.7431C14.4998 17.7414 14.4998 17.7396 14.4998 17.7379C14.4998 17.7362 14.4998 17.7345 14.4998 17.7328C14.4998 17.731 14.4998 17.7293 14.4998 17.7276C14.4998 17.7259 14.4998 17.7242 14.4998 17.7224C14.4998 17.7207 14.4998 17.719 14.4998 17.7173C14.4998 17.7156 14.4998 17.7138 14.4998 17.7121C14.4998 17.7104 14.4998 17.7087 14.4998 17.707C14.4998 17.7053 14.4998 17.7035 14.4998 17.7018C14.4998 17.7001 14.4998 17.6984 14.4998 17.6967C14.4998 17.695 14.4998 17.6932 14.4998 17.6915C14.4998 17.6898 14.4998 17.6881 14.4998 17.6864C14.4998 17.6847 14.4998 17.683 14.4998 17.6812C14.4998 17.6795 14.4998 17.6778 14.4998 17.6761C14.4998 17.6744 14.4998 17.6727 14.4998 17.671C14.4998 17.6692 14.4998 17.6675 14.4998 17.6658C14.4998 17.6641 14.4998 17.6624 14.4998 17.6607C14.4998 17.659 14.4998 17.6573 14.4998 17.6556C14.4998 17.6538 14.4998 17.6521 14.4998 17.6504C14.4998 17.6487 14.4998 17.647 14.4998 17.6453C14.4998 17.6436 14.4998 17.6419 14.4998 17.6402C14.4998 17.6384 14.4998 17.6367 14.4998 17.635C14.4998 17.6333 14.4998 17.6316 14.4998 17.6299C14.4998 17.6282 14.4998 17.6265 14.4998 17.6248C14.4998 17.6231 14.4998 17.6214 14.4998 17.6196C14.4998 17.6179 14.4998 17.6162 14.4998 17.6145C14.4998 17.6128 14.4998 17.6111 14.4998 17.6094C14.4998 17.6077 14.4998 17.606 14.4998 17.6043C14.4998 17.6026 14.4998 17.6009 14.4998 17.5992C14.4998 17.5975 14.4998 17.5957 14.4998 17.594C14.4998 17.5923 14.4998 17.5906 14.4998 17.5889C14.4998 17.5872 14.4998 17.5855 14.4998 17.5838C14.4998 17.5821 14.4998 17.5804 14.4998 17.5787C14.4998 17.577 14.4998 17.5753 14.4998 17.5736C14.4998 17.5719 14.4998 17.5702 14.4998 17.5685C14.4998 17.5668 14.4998 17.5651 14.4998 17.5634C14.4998 17.5617 14.4998 17.56 14.4998 17.5583C14.4998 17.5566 14.4998 17.5549 14.4998 17.5532C14.4998 17.5515 14.4998 17.5498 14.4998 17.5481C14.4998 17.5464 14.4998 17.5447 14.4998 17.543C14.4998 17.5413 14.4998 17.5396 14.4998 17.5379C14.4998 17.5362 14.4998 17.5345 14.4998 17.5328C14.4998 17.5311 14.4998 17.5294 14.4998 17.5277C14.4998 17.526 14.4998 17.5243 14.4998 17.5226C14.4998 17.5209 14.4998 17.5192 14.4998 17.5175C14.4998 17.5158 14.4998 17.5141 14.4998 17.5124C14.4998 17.5107 14.4998 17.509 14.4998 17.5073C14.4998 17.5056 14.4998 17.5039 14.4998 17.5022C14.4998 17.5005 14.4998 17.4988 14.4998 17.4971C14.4998 17.4954 14.4998 17.4937 14.4998 17.4921C14.4998 17.4904 14.4998 17.4887 14.4998 17.487C14.4998 17.4853 14.4998 17.4836 14.4998 17.4819C14.4998 17.4802 14.4998 17.4785 14.4998 17.4768C14.4998 17.4751 14.4998 17.4734 14.4998 17.4717C14.4998 17.47 14.4998 17.4684 14.4998 17.4667C14.4998 17.465 14.4998 17.4633 14.4998 17.4616C14.4998 17.4599 14.4998 17.4582 14.4998 17.4565C14.4998 17.4548 14.4998 17.4531 14.4998 17.4514C14.4998 17.4498 14.4998 17.4481 14.4998 17.4464C14.4998 17.4447 14.4998 17.443 14.4998 17.4413C14.4998 17.4396 14.4998 17.4379 14.4998 17.4362C14.4998 17.4346 14.4998 17.4329 14.4998 17.4312C14.4998 17.4295 14.4998 17.4278 14.4998 17.4261C14.4998 17.4244 14.4998 17.4227 14.4998 17.4211C14.4998 17.4194 14.4998 17.4177 14.4998 17.416C14.4998 17.4143 14.4998 17.4126 14.4998 17.4109C14.4998 17.4093 14.4998 17.4076 14.4998 17.4059C14.4998 17.4042 14.4998 17.4025 14.4998 17.4008C14.4998 17.3991 14.4998 17.3975 14.4998 17.3958C14.4998 17.3941 14.4998 17.3924 14.4998 17.3907C14.4998 17.389 14.4998 17.3874 14.4998 17.3857C14.4998 17.384 14.4998 17.3823 14.4998 17.3806C14.4998 17.3789 14.4998 17.3773 14.4998 17.3756C14.4998 17.3739 14.4998 17.3722 14.4998 17.3705C14.4998 17.3689 14.4998 17.3672 14.4998 17.3655C14.4998 17.3638 14.4998 17.3621 14.4998 17.3605C14.4998 17.3588 14.4998 17.3571 14.4998 17.3554C14.4998 17.3537 14.4998 17.3521 14.4998 17.3504C14.4998 17.3487 14.4998 17.347 14.4998 17.3453C14.4998 17.3437 14.4998 17.342 14.4998 17.3403C14.4998 17.3386 14.4998 17.337 14.4998 17.3353C14.4998 17.3336 14.4998 17.3319 14.4998 17.3303C14.4998 17.3286 14.4998 17.3269 14.4998 17.3252C14.4998 17.3235 14.4998 17.3219 14.4998 17.3202C14.4998 17.3185 14.4998 17.3168 14.4998 17.3152C14.4998 17.3135 14.4998 17.3118 14.4998 17.3101C14.4998 17.3085 14.4998 17.3068 14.4998 17.3051C14.4998 17.3035 14.4998 17.3018 14.4998 17.3001C14.4998 17.2984 14.4998 17.2968 14.4998 17.2951C14.4998 17.2934 14.4998 17.2917 14.4998 17.2901C14.4998 17.2884 14.4998 17.2867 14.4998 17.2851C14.4998 17.2834 14.4998 17.2817 14.4998 17.28C14.4998 17.2784 14.4998 17.2767 14.4998 17.275C14.4998 17.2734 14.4998 17.2717 14.4998 17.27C14.4998 17.2684 14.4998 17.2667 14.4998 17.265C14.4998 17.2633 14.4998 17.2617 14.4998 17.26C14.4998 17.2583 14.4998 17.2567 14.4998 17.255C14.4998 17.2533 14.4998 17.2517 14.4998 17.25C14.4998 17.2483 14.4998 17.2467 14.4998 17.245C14.4998 17.2433 14.4998 17.2417 14.4998 17.24C14.4998 17.2383 14.4998 17.2367 14.4998 17.235C14.4998 17.2333 14.4998 17.2317 14.4998 17.23C14.4998 17.2283 14.4998 17.2267 14.4998 17.225C14.4998 17.2234 14.4998 17.2217 14.4998 17.22C14.4998 17.2184 14.4998 17.2167 14.4998 17.215C14.4998 17.2134 14.4998 17.2117 14.4998 17.21C14.4998 17.2084 14.4998 17.2067 14.4998 17.2051C14.4998 17.2034 14.4998 17.2017 14.4998 17.2001C14.4998 17.1984 14.4998 17.1967 14.4998 17.1951C14.4998 17.1934 14.4998 17.1918 14.4998 17.1901C14.4998 17.1884 14.4998 17.1868 14.4998 17.1851C14.4998 17.1835 14.4998 17.1818 14.4998 17.1801C14.4998 17.1785 14.4998 17.1768 14.4998 17.1752C14.4998 17.1735 14.4998 17.1719 14.4998 17.1702C14.4998 17.1685 14.4998 17.1669 14.4998 17.1652C14.4998 17.1636 14.4998 17.1619 14.4998 17.1603C14.4998 17.1586 14.4998 17.1569 14.4998 17.1553C14.4998 17.1536 14.4998 17.152 14.4998 17.1503C14.4998 17.1487 14.4998 17.147 14.4998 17.1453C14.4998 17.1437 14.4998 17.142 14.4998 17.1404C14.4998 17.1387 14.4998 17.1371 14.4998 17.1354C14.4998 17.1338 14.4998 17.1321 14.4998 17.1305C14.4998 17.1288 14.4998 17.1272 14.4998 17.1255C14.4998 17.1239 14.4998 17.1222 14.4998 17.1205C14.4998 17.1189 14.4998 17.1172 14.4998 17.1156C14.4998 17.1139 14.4998 17.1123 14.4998 17.1106C14.4998 17.109 14.4998 17.1073 14.4998 17.1057C14.4998 17.104 14.4998 17.1024 14.4998 17.1007C14.4998 17.0991 14.4998 17.0974 14.4998 17.0958C14.4998 17.0941 14.4998 17.0925 14.4998 17.0908C14.4998 17.0892 14.4998 17.0875 14.4998 17.0859C14.4998 17.0843 14.4998 17.0826 14.4998 17.081C14.4998 17.0793 14.4998 17.0777 14.4998 17.076C14.4998 17.0744 14.4998 17.0727 14.4998 17.0711C14.4998 17.0694 14.4998 17.0678 14.4998 17.0661C14.4998 17.0645 14.4998 17.0628 14.4998 17.0612C14.4998 17.0596 14.4998 17.0579 14.4998 17.0563C14.4998 17.0546 14.4998 17.053 14.4998 17.0513C14.4998 17.0497 14.4998 17.048 14.4998 17.0464C14.4998 17.0448 14.4998 17.0431 14.4998 17.0415C14.4998 17.0398 14.4998 17.0382 14.4998 17.0366C14.4998 17.0349 14.4998 17.0333 14.4998 17.0316C14.4998 17.03 14.4998 17.0283 14.4998 17.0267C14.4998 17.0251 14.4998 17.0234 14.4998 17.0218C14.4998 17.0201 14.4998 17.0185 14.4998 17.0169C14.4998 17.0152 14.4998 17.0136 14.4998 17.0119C14.4998 17.0103 14.4998 17.0087 14.4998 17.007C14.4998 17.0054 14.4998 17.0038 14.4998 17.0021C14.4998 17.0005 14.4998 16.9988 14.4998 16.9972C14.4998 16.9956 14.4998 16.9939 14.4998 16.9923C14.4998 16.9907 14.4998 16.989 14.4998 16.9874C14.4998 16.9858 14.4998 16.9841 14.4998 16.9825C14.4998 16.9808 14.4998 16.9792 14.4998 16.9776C14.4998 16.9759 14.4998 16.9743 14.4998 16.9727C14.4998 16.971 14.4998 16.9694 14.4998 16.9678C14.4998 16.9661 14.4998 16.9645 14.4998 16.9629C14.4998 16.9612 14.4998 16.9596 14.4998 16.958C14.4998 16.9563 14.4998 16.9547 14.4998 16.9531C14.4998 16.9515 14.4998 16.9498 14.4998 16.9482C14.4998 16.9466 14.4998 16.9449 14.4998 16.9433C14.4998 16.9417 14.4998 16.94 14.4998 16.9384C14.4998 16.9368 14.4998 16.9351 14.4998 16.9335C14.4998 16.9319 14.4998 16.9303 14.4998 16.9286C14.4998 16.927 14.4998 16.9254 14.4998 16.9237C14.4998 16.9221 14.4998 16.9205 14.4998 16.9189C14.4998 16.9172 14.4998 16.9156 14.4998 16.914C14.4998 16.9124 14.4998 16.9107 14.4998 16.9091C14.4998 16.9075 14.4998 16.9059 14.4998 16.9042C14.4998 16.9026 14.4998 16.901 14.4998 16.8994C14.4998 16.8977 14.4998 16.8961 14.4998 16.8945C14.4998 16.8929 14.4998 16.8912 14.4998 16.8896C14.4998 16.888 14.4998 16.8864 14.4998 16.8847C14.4998 16.8831 14.4998 16.8815 14.4998 16.8799C14.4998 16.8783 14.4998 16.8766 14.4998 16.875C14.4998 16.8734 14.4998 16.8718 14.4998 16.8701C14.4998 16.8685 14.4998 16.8669 14.4998 16.8653C14.4998 16.8637 14.4998 16.862 14.4998 16.8604C14.4998 16.8588 14.4998 16.8572 14.4998 16.8556C14.4998 16.8539 14.4998 16.8523 14.4998 16.8507C14.4998 16.8491 14.4998 16.8475 14.4998 16.8459C14.4998 16.8442 14.4998 16.8426 14.4998 16.841C14.4998 16.8394 14.4998 16.8378 14.4998 16.8361C14.4998 16.8345 14.4998 16.8329 14.4998 16.8313C14.4998 16.8297 14.4998 16.8281 14.4998 16.8265C14.4998 16.8248 14.4998 16.8232 14.4998 16.8216C14.4998 16.82 14.4998 16.8184 14.4998 16.8168C14.4998 16.8151 14.4998 16.8135 14.4998 16.8119C14.4998 16.8103 14.4998 16.8087 14.4998 16.8071C14.4998 16.8055 14.4998 16.8039 14.4998 16.8022C14.4998 16.8006 14.4998 16.799 14.4998 16.7974C14.4998 16.7958 14.4998 16.7942 14.4998 16.7926C14.4998 16.791 14.4998 16.7894 14.4998 16.7877C14.4998 16.7861 14.4998 16.7845 14.4998 16.7829C14.4998 16.7813 14.4998 16.7797 14.4998 16.7781C14.4998 16.7765 14.4998 16.7749 14.4998 16.7733C14.4998 16.7717 14.4998 16.77 14.4998 16.7684C14.4998 16.7668 14.4998 16.7652 14.4998 16.7636C14.4998 16.762 14.4998 16.7604 14.4998 16.7588C14.4998 16.7572 14.4998 16.7556 14.4998 16.754C14.4998 16.7524 14.4998 16.7508 14.4998 16.7492C14.4998 16.7476 14.4998 16.7459 14.4998 16.7443C14.4998 16.7427 14.4998 16.7411 14.4998 16.7395C14.4998 16.7379 14.4998 16.7363 14.4998 16.7347C14.4998 16.7331 14.4998 16.7315 14.4998 16.7299C14.4998 16.7283 14.4998 16.7267 14.4998 16.7251C14.4998 16.7235 14.4998 16.7219 14.4998 16.7203C14.4998 16.7187 14.4998 16.7171 14.4998 16.7155C14.4998 16.7139 14.4998 16.7123 14.4998 16.7107C14.4998 16.7091 14.4998 16.7075 14.4998 16.7059C14.4998 16.7043 14.4998 16.7027 14.4998 16.7011C14.4998 16.6995 14.4998 16.6979 14.4998 16.6963C14.4998 16.6947 14.4998 16.6931 14.4998 16.6915C14.4998 16.6899 14.4998 16.6883 14.4998 16.6867C14.4998 16.6851 14.4998 16.6835 14.4998 16.6819C14.4998 16.6803 14.4998 16.6787 14.4998 16.6771C14.4998 16.6755 14.4998 16.6739 14.4998 16.6724C14.4998 16.6708 14.4998 16.6692 14.4998 16.6676C14.4998 16.666 14.4998 16.6644 14.4998 16.6628C14.4998 16.6612 14.4998 16.6596 14.4998 16.658H13.4998ZM9.99984 13.1587C11.9329 13.1587 13.4998 14.7251 13.4998 16.658H14.4998C14.4998 14.1726 12.485 12.1587 9.99984 12.1587V13.1587ZM1.1665 16.658C1.1665 14.7251 2.7334 13.1587 4.6665 13.1587V12.1587C2.18133 12.1587 0.166504 14.1726 0.166504 16.658H1.1665ZM18.8332 17.3332V19.3332H19.8332V17.3332H18.8332ZM19.3332 18.8332H15.9998V19.8332H19.3332V18.8332ZM15.9998 14.4998C17.5646 14.4998 18.8332 15.7684 18.8332 17.3332H19.8332C19.8332 15.2161 18.1169 13.4998 15.9998 13.4998V14.4998ZM15.3332 10.8332C14.1366 10.8332 13.1665 9.86312 13.1665 8.6665H12.1665C12.1665 10.4154 13.5843 11.8332 15.3332 11.8332V10.8332ZM17.4998 8.6665C17.4998 9.86312 16.5298 10.8332 15.3332 10.8332V11.8332C17.0821 11.8332 18.4998 10.4154 18.4998 8.6665H17.4998ZM15.3332 6.49984C16.5298 6.49984 17.4998 7.46989 17.4998 8.6665H18.4998C18.4998 6.9176 17.0821 5.49984 15.3332 5.49984V6.49984ZM15.3332 5.49984C13.5843 5.49984 12.1665 6.9176 12.1665 8.6665H13.1665C13.1665 7.46989 14.1366 6.49984 15.3332 6.49984V5.49984Z" fill="white"/>
</svg>
